<svg xmlns="http://www.w3.org/2000/svg" width="30" height="11.792" viewBox="0 0 30 11.792">
  <defs>
    <style>
      .cls-1 {
        fill: #0f77ff;
      }

      .cls-1, .cls-2 {
        fill-rule: evenodd;
      }

      .cls-2 {
        fill: #1a1a1a;
      }
    </style>
  </defs>
  <g id="icon_huod" transform="translate(-27 -349.15)">
    <path id="矩形_2" data-name="矩形 2" class="cls-1" d="M87.464,59.807H85.5l-1.941-5.472L83,52.926h1.941l-1.615-4.552h1.96L86.9,52.926h.019l.762,1.905H85.7Z" transform="translate(-56 301.127)"/>
    <path id="矩形_2-2" data-name="矩形 2" class="cls-2" d="M113.714,58.839a1.5,1.5,0,0,1-.335.482,1.644,1.644,0,0,1-.5.327,1.5,1.5,0,0,1-.6.122h-2.123l.555-1.421h.572a.5.5,0,0,0,.523-.523V50.738h-1.7l-1.633,9.032h-2.025l1.633-9.032h-1.96v-1.6h2.254l.2-1.143H110.6l-.2,1.143h3.43v9.1A1.479,1.479,0,0,1,113.714,58.839Zm-11.72-1.029h1.845l-.441-2.319h1.911l.817,4.279h-1.911l-.065-.376H99.61l1.4-6.272H99.446v-1.6h6.534v1.6h-2.94Zm-2.107-9.375h5.652v1.6H99.887v-1.6ZM98.074,59.263a1.784,1.784,0,0,1-1.274.523H89.074V53.661h3.462V52.518H89.009v-1.6h3.528V49.791l-3.4.131V48.435l9.229-.359v1.486l-3.512.131v1.225h3.512v1.6H94.856v1.143H98.6v4.328a1.784,1.784,0,0,1-.523,1.274Zm-1.731-4.018H91.328V58.2H95.82a.5.5,0,0,0,.523-.523V55.246Z" transform="translate(-56.837 301.156)"/>
  </g>
</svg>
