<svg xmlns="http://www.w3.org/2000/svg" xmlns:xlink="http://www.w3.org/1999/xlink" fill="none" version="1.1" width="319.12451171875" height="255.65496826171875" viewBox="0 0 319.12451171875 255.65496826171875"><defs><filter id="master_svg0_9_6516" filterUnits="objectBoundingBox" color-interpolation-filters="sRGB" x="-40" y="-35" width="167" height="167"><feFlood flood-opacity="0" result="BackgroundImageFix"/><feColorMatrix in="SourceAlpha" type="matrix" values="0 0 0 0 0 0 0 0 0 0 0 0 0 0 0 0 0 0 127 0"/><feOffset dy="5" dx="0"/><feGaussianBlur stdDeviation="10"/><feColorMatrix type="matrix" values="0 0 0 0 1 0 0 0 0 0.501960813999176 0 0 0 0 0 0 0 0 0.8999999761581421 0"/><feBlend mode="normal" in2="BackgroundImageFix" result="effect1_dropShadow"/><feBlend mode="normal" in="SourceGraphic" in2="effect1_dropShadow" result="shape"/></filter><linearGradient x1="0.5" y1="0" x2="0.5" y2="1" id="master_svg1_9_3761"><stop offset="0%" stop-color="#FFB152" stop-opacity="1"/><stop offset="100%" stop-color="#FF4800" stop-opacity="0.20000000298023224"/></linearGradient><filter id="master_svg2_9_6512" filterUnits="objectBoundingBox" color-interpolation-filters="sRGB" x="-64" y="-56" width="156.1259765625" height="156.4296474456787"><feFlood flood-opacity="0" result="BackgroundImageFix"/><feColorMatrix in="SourceAlpha" type="matrix" values="0 0 0 0 0 0 0 0 0 0 0 0 0 0 0 0 0 0 127 0"/><feOffset dy="8" dx="0"/><feGaussianBlur stdDeviation="16"/><feColorMatrix type="matrix" values="0 0 0 0 0 0 0 0 0 0 0 0 0 0 0 0 0 0 0.1599999964237213 0"/><feBlend mode="normal" in2="BackgroundImageFix" result="effect1_dropShadow"/><feBlend mode="normal" in="SourceGraphic" in2="effect1_dropShadow" result="shape"/></filter><filter id="master_svg3_9_6510" filterUnits="objectBoundingBox" color-interpolation-filters="sRGB" x="-64" y="-56" width="169.32378768920898" height="169.99285888671875"><feFlood flood-opacity="0" result="BackgroundImageFix"/><feColorMatrix in="SourceAlpha" type="matrix" values="0 0 0 0 0 0 0 0 0 0 0 0 0 0 0 0 0 0 127 0"/><feOffset dy="8" dx="0"/><feGaussianBlur stdDeviation="16"/><feColorMatrix type="matrix" values="0 0 0 0 0 0 0 0 0 0 0 0 0 0 0 0 0 0 0.1599999964237213 0"/><feBlend mode="normal" in2="BackgroundImageFix" result="effect1_dropShadow"/><feBlend mode="normal" in="SourceGraphic" in2="effect1_dropShadow" result="shape"/></filter><filter id="master_svg4_9_6511" filterUnits="objectBoundingBox" color-interpolation-filters="sRGB" x="-64" y="-56" width="145.45245170593262" height="146.17831230163574"><feFlood flood-opacity="0" result="BackgroundImageFix"/><feColorMatrix in="SourceAlpha" type="matrix" values="0 0 0 0 0 0 0 0 0 0 0 0 0 0 0 0 0 0 127 0"/><feOffset dy="8" dx="0"/><feGaussianBlur stdDeviation="16"/><feColorMatrix type="matrix" values="0 0 0 0 0 0 0 0 0 0 0 0 0 0 0 0 0 0 0.1599999964237213 0"/><feBlend mode="normal" in2="BackgroundImageFix" result="effect1_dropShadow"/><feBlend mode="normal" in="SourceGraphic" in2="effect1_dropShadow" result="shape"/></filter><filter id="master_svg5_9_6514" filterUnits="objectBoundingBox" color-interpolation-filters="sRGB" x="-64" y="-56" width="145.45245170593262" height="146.17831230163574"><feFlood flood-opacity="0" result="BackgroundImageFix"/><feColorMatrix in="SourceAlpha" type="matrix" values="0 0 0 0 0 0 0 0 0 0 0 0 0 0 0 0 0 0 127 0"/><feOffset dy="8" dx="0"/><feGaussianBlur stdDeviation="16"/><feColorMatrix type="matrix" values="0 0 0 0 0 0 0 0 0 0 0 0 0 0 0 0 0 0 0.1599999964237213 0"/><feBlend mode="normal" in2="BackgroundImageFix" result="effect1_dropShadow"/><feBlend mode="normal" in="SourceGraphic" in2="effect1_dropShadow" result="shape"/></filter><filter id="master_svg6_9_6513" filterUnits="objectBoundingBox" color-interpolation-filters="sRGB" x="-64" y="-56" width="171.27978897094727" height="171.495361328125"><feFlood flood-opacity="0" result="BackgroundImageFix"/><feColorMatrix in="SourceAlpha" type="matrix" values="0 0 0 0 0 0 0 0 0 0 0 0 0 0 0 0 0 0 127 0"/><feOffset dy="8" dx="0"/><feGaussianBlur stdDeviation="16"/><feColorMatrix type="matrix" values="0 0 0 0 0 0 0 0 0 0 0 0 0 0 0 0 0 0 0.1599999964237213 0"/><feBlend mode="normal" in2="BackgroundImageFix" result="effect1_dropShadow"/><feBlend mode="normal" in="SourceGraphic" in2="effect1_dropShadow" result="shape"/></filter><filter id="master_svg7_9_6515" filterUnits="objectBoundingBox" color-interpolation-filters="sRGB" x="-64" y="-56" width="156.66333198547363" height="156.94115257263184"><feFlood flood-opacity="0" result="BackgroundImageFix"/><feColorMatrix in="SourceAlpha" type="matrix" values="0 0 0 0 0 0 0 0 0 0 0 0 0 0 0 0 0 0 127 0"/><feOffset dy="8" dx="0"/><feGaussianBlur stdDeviation="16"/><feColorMatrix type="matrix" values="0 0 0 0 0 0 0 0 0 0 0 0 0 0 0 0 0 0 0.1599999964237213 0"/><feBlend mode="normal" in2="BackgroundImageFix" result="effect1_dropShadow"/><feBlend mode="normal" in="SourceGraphic" in2="effect1_dropShadow" result="shape"/></filter><clipPath id="master_svg8_9_316"><rect x="141.90771484375" y="124.73443603515625" width="51" height="43" rx="0"/></clipPath></defs><g style="mix-blend-mode:passthrough"><g style="mix-blend-mode:passthrough"><g style="mix-blend-mode:passthrough" filter="url(#master_svg0_9_6516)"><ellipse cx="166.40771484375" cy="146.7342987060547" rx="43.5" ry="43.5" fill="url(#master_svg1_9_3761)" fill-opacity="1"/></g><g style="mix-blend-mode:passthrough"><g style="mix-blend-mode:passthrough" transform="matrix(0.9722107648849487,0.23410741984844208,-0.23410741984844208,0.9722107648849487,33.344794480523205,-52.440806602825205)" filter="url(#master_svg2_9_6512)"><path d="M255.86612561035156,121.83805870605468Q255.91872561035157,121.93240870605469,255.99032561035156,122.01335870605469Q256.06182561035155,122.09429870605469,256.14902561035154,122.15808870605468Q256.23622561035154,122.22187870605468,256.3350256103516,122.26557870605468Q256.43382561035156,122.30927870605468,256.5397256103516,122.33086870605469L263.27742561035154,123.70501870605469Q263.30972561035156,123.71160870605469,263.34152561035154,123.72029870605469Q263.37322561035154,123.7289887060547,263.40442561035155,123.73975870605469Q263.43552561035153,123.7505287060547,263.4659256103516,123.76331870605469Q263.4962256103516,123.77610870605469,263.52572561035157,123.79086870605468Q263.5551256103516,123.80562870605469,263.58362561035153,123.82229870605468Q263.61202561035157,123.83896870605469,263.63922561035156,123.85746870605469Q263.6665256103516,123.87597870605468,263.69252561035154,123.89622870605469Q263.7184256103516,123.9164887060547,263.74302561035154,123.93840870605469Q263.76762561035156,123.96032870605468,263.79072561035156,123.98382870605468Q263.81382561035156,124.00731870605469,263.83532561035156,124.03228870605469Q263.85682561035156,124.0572487060547,263.87662561035154,124.08356870605469Q263.89642561035157,124.10988870605469,263.9145256103516,124.13745870605469Q263.93252561035155,124.16502870605468,263.9487256103516,124.19372870605469Q263.96492561035154,124.22242870605469,263.97912561035156,124.25209870605468Q263.99342561035155,124.28179870605469,264.00562561035156,124.3123987060547Q264.01792561035154,124.34299870605469,264.02812561035154,124.37429870605469Q264.03842561035157,124.40559870605469,264.0465256103516,124.43749870605468Q264.05472561035157,124.46939870605469,264.06072561035154,124.50179870605469Q264.06672561035157,124.53419870605468,264.07062561035156,124.56689870605469Q264.07452561035154,124.59959870605469,264.07622561035157,124.63249870605469Q264.07792561035154,124.66539870605469,264.0775256103516,124.69839870605469Q264.07702561035154,124.73129870605469,264.07442561035157,124.76419870605469Q264.07182561035154,124.7969987060547,264.06702561035155,124.82959870605468Q264.06232561035154,124.86219870605468,264.05542561035156,124.89439870605469Q264.0485256103516,124.92659870605469,264.0395256103516,124.95829870605469Q264.03052561035156,124.98999870605469,264.01942561035156,125.02099870605468Q264.00832561035156,125.0520987060547,263.99522561035155,125.08229870605469Q263.98212561035155,125.11249870605468,263.96712561035156,125.14179870605469Q263.95202561035154,125.17109870605469,263.9351256103516,125.1993987060547Q263.9181256103516,125.22759870605469,263.8993256103516,125.25469870605468Q263.88062561035156,125.28179870605469,263.8601256103516,125.30749870605469Q263.8395256103516,125.33329870605469,263.81742561035156,125.35769870605469L259.15372561035156,130.4854987060547Q259.0818256103516,130.56459870605468,259.02822561035157,130.65709870605468Q258.97462561035155,130.74949870605468,258.94182561035154,130.85129870605468Q258.9090256103516,130.9529987060547,258.8984256103516,131.05939870605468Q258.88782561035157,131.16569870605468,258.9000256103516,131.27189870605469L259.68992561035157,138.1805987060547Q259.69362561035155,138.21339870605468,259.69522561035154,138.2464987060547Q259.69682561035154,138.27959870605468,259.6962256103516,138.31269870605468Q259.69562561035156,138.3457987060547,259.6928256103516,138.37879870605468Q259.69002561035154,138.4117987060547,259.68502561035154,138.44449870605467Q259.68002561035155,138.47719870605468,259.67292561035157,138.5094987060547Q259.6658256103516,138.5418987060547,259.65652561035154,138.5736987060547Q259.6473256103516,138.6053987060547,259.6359256103516,138.63649870605468Q259.6246256103516,138.6675987060547,259.61122561035154,138.69789870605467Q259.5979256103516,138.72819870605468,259.5825256103516,138.7575987060547Q259.56722561035156,138.7868987060547,259.5499256103516,138.81519870605467Q259.5327256103516,138.8433987060547,259.51362561035154,138.8704987060547Q259.49452561035156,138.89749870605468,259.47372561035155,138.92329870605468Q259.45292561035154,138.94899870605468,259.43042561035156,138.9732987060547Q259.4079256103516,138.9975987060547,259.3839256103516,139.0202987060547Q259.35982561035155,139.04309870605468,259.3343256103516,139.0641987060547Q259.30882561035156,139.0852987060547,259.2820256103516,139.10469870605468Q259.25522561035154,139.1240987060547,259.22712561035155,139.14169870605468Q259.1991256103516,139.1592987060547,259.1699256103516,139.17489870605468Q259.1407256103516,139.1905987060547,259.1106256103516,139.2042987060547Q259.0805256103516,139.2179987060547,259.04952561035157,139.22969870605468Q259.01852561035156,139.2413987060547,258.9869256103516,139.2509987060547Q258.9552256103516,139.26069870605468,258.92292561035157,139.26819870605468Q258.8907256103516,139.2756987060547,258.85802561035155,139.28099870605467Q258.82532561035157,139.28639870605468,258.7924256103516,139.2894987060547Q258.75942561035157,139.2926987060547,258.72642561035155,139.2936987060547Q258.69332561035156,139.2946987060547,258.6602256103516,139.2934987060547Q258.6271256103516,139.29229870605468,258.59422561035154,139.28889870605468Q258.5612256103516,139.28549870605468,258.5286256103516,139.2799987060547Q258.4960256103516,139.27439870605468,258.4638256103516,139.26669870605468Q258.43162561035155,139.25899870605468,258.4000256103516,139.2491987060547Q258.3683256103516,139.2393987060547,258.33742561035154,139.2274987060547Q258.30652561035157,139.2155987060547,258.27652561035154,139.20169870605469L252.04602561035156,136.3193987060547Q251.94732561035156,136.2736987060547,251.84102561035155,136.25029870605468Q251.73482561035155,136.2269987060547,251.62612561035155,136.2269987060547Q251.51732561035158,136.2269987060547,251.41112561035158,136.25029870605468Q251.30492561035157,136.2736987060547,251.20622561035157,136.3193987060547L244.97570561035155,139.20169870605469Q244.94566561035157,139.2155987060547,244.91476561035157,139.2274987060547Q244.88386561035156,139.2393987060547,244.85224561035156,139.2491987060547Q244.82063561035156,139.25899870605468,244.78843561035157,139.26669870605468Q244.75623561035155,139.27439870605468,244.72360561035157,139.2799987060547Q244.69096561035155,139.28549870605468,244.65803561035156,139.28889870605468Q244.62510561035157,139.29229870605468,244.59201561035155,139.2934987060547Q244.55893561035157,139.2946987060547,244.52584561035155,139.2936987060547Q244.49275561035157,139.2926987060547,244.45980561035157,139.2894987060547Q244.42685561035157,139.28639870605468,244.39418561035157,139.28099870605467Q244.36151561035157,139.2756987060547,244.32927561035157,139.26819870605468Q244.29702561035157,139.26069870605468,244.26534561035157,139.2509987060547Q244.23367561035155,139.2413987060547,244.20270561035156,139.22969870605468Q244.17172561035156,139.2179987060547,244.14159561035157,139.2042987060547Q244.11146561035156,139.1905987060547,244.08230561035157,139.17489870605468Q244.05314561035155,139.1592987060547,244.02509561035157,139.14169870605468Q243.99703561035156,139.1240987060547,243.97020561035157,139.10469870605468Q243.94336561035155,139.0852987060547,243.91787561035156,139.0641987060547Q243.89238561035157,139.04309870605468,243.86834561035155,139.0202987060547Q243.84430561035157,138.9975987060547,243.82181561035156,138.9732987060547Q243.79933561035156,138.94899870605468,243.77851561035158,138.92319870605468Q243.75768561035156,138.89749870605468,243.73860561035156,138.8704987060547Q243.71952561035155,138.8433987060547,243.70228561035157,138.81519870605467Q243.68503561035158,138.7868987060547,243.66969561035157,138.7575987060547Q243.65435561035156,138.72819870605468,243.64098561035155,138.69789870605467Q243.62761561035157,138.6675987060547,243.61628561035155,138.63649870605468Q243.60494561035156,138.6053987060547,243.59569561035156,138.5736987060547Q243.58644561035157,138.5418987060547,243.57931561035156,138.5094987060547Q243.57218561035157,138.47719870605468,243.56720561035155,138.44449870605467Q243.56222561035156,138.4117987060547,243.55942561035155,138.37879870605468Q243.55662561035157,138.3457987060547,243.55601561035155,138.31269870605468Q243.55539561035155,138.27959870605468,243.55697561035157,138.2464987060547Q243.55855561035156,138.21339870605468,243.56231561035156,138.1805987060547L244.35223561035156,131.27189870605469Q244.36437561035157,131.16569870605468,244.35380561035157,131.05939870605468Q244.34322561035157,130.9529987060547,244.31040561035155,130.85129870605468Q244.27758561035157,130.74949870605468,244.22400561035155,130.65709870605468Q244.17042561035157,130.56459870605468,244.09850561035157,130.4854987060547L239.43482561035157,125.35769870605469Q239.41266561035155,125.33329870605469,239.39214561035158,125.30749870605469Q239.37163561035157,125.28179870605469,239.35286561035156,125.25469870605468Q239.33409561035157,125.22759870605469,239.31714561035156,125.1993987060547Q239.30019561035155,125.17109870605469,239.28513561035157,125.14179870605469Q239.27008561035157,125.11249870605468,239.25698561035156,125.08229870605469Q239.24389561035156,125.0520987060547,239.23282561035157,125.02099870605468Q239.22174561035158,124.98999870605469,239.21273561035156,124.95829870605469Q239.20372561035157,124.92659870605469,239.19682561035157,124.89439870605469Q239.18992561035157,124.86219870605468,239.18515561035156,124.82959870605468Q239.18038561035155,124.7969987060547,239.17777561035157,124.76419870605469Q239.17515561035157,124.73129870605469,239.17471561035157,124.69839870605469Q239.17426561035157,124.66539870605469,239.17599561035155,124.63249870605469Q239.17771561035156,124.59959870605469,239.18159561035156,124.56689870605469Q239.18548561035155,124.53419870605468,239.19151561035156,124.50179870605469Q239.19754561035157,124.46939870605469,239.20569561035157,124.43749870605468Q239.21383561035157,124.40559870605469,239.22407561035158,124.37429870605469Q239.23430561035156,124.34299870605469,239.24657561035156,124.3123987060547Q239.25884561035156,124.28179870605469,239.27309561035156,124.25209870605468Q239.28735561035157,124.22242870605469,239.30353561035156,124.19372870605469Q239.31971561035155,124.16502870605468,239.33774561035156,124.13745870605469Q239.35577561035157,124.10988870605469,239.37558561035155,124.08356870605469Q239.39539561035156,124.0572487060547,239.41689561035156,124.03228870605469Q239.43839561035156,124.00731870605469,239.46148561035156,123.98382870605468Q239.48457561035156,123.96033870605469,239.50917561035158,123.93840870605469Q239.53376561035157,123.9164887060547,239.55974561035157,123.89622870605469Q239.58572561035157,123.87597870605468,239.61297561035155,123.85747870605469Q239.64023561035157,123.83896870605469,239.66865561035155,123.82229870605468Q239.69706561035156,123.80562870605469,239.72651561035156,123.79086870605468Q239.75596561035155,123.77610870605469,239.78632561035155,123.76331870605469Q239.81668561035156,123.7505287060547,239.84782561035155,123.73975870605469Q239.87895561035157,123.7289887060547,239.91073561035157,123.72029870605469Q239.94250561035156,123.71160870605469,239.97478561035157,123.70501870605469L246.71254561035155,122.33086870605469Q246.81839561035156,122.30927870605468,246.91719561035157,122.26557870605468Q247.01599561035155,122.22187870605468,247.10318561035157,122.15808870605468Q247.19037561035157,122.09429870605469,247.26192561035157,122.01335870605469Q247.33348561035157,121.93240870605469,247.38609561035156,121.83805870605468L250.75272561035158,115.8005787060547Q250.76892561035157,115.77157870605468,250.78692561035157,115.7437187060547Q250.80502561035155,115.71584870605469,250.82492561035156,115.68924870605468Q250.84472561035156,115.66264870605468,250.86632561035157,115.63741870605469Q250.88792561035157,115.61218870605468,250.91112561035158,115.58844870605469Q250.93432561035155,115.56470870605469,250.95912561035158,115.54255870605469Q250.98382561035157,115.52041870605468,251.01002561035156,115.49995870605468Q251.03612561035158,115.47949870605468,251.06362561035155,115.46081870605468Q251.09102561035155,115.44213870605469,251.11962561035156,115.42532870605469Q251.14832561035155,115.40850870605469,251.17802561035157,115.39362870605468Q251.20762561035156,115.3787487060547,251.23822561035155,115.36587870605469Q251.26882561035157,115.35299870605469,251.30022561035156,115.34217870605468Q251.33162561035155,115.33135870605469,251.36372561035157,115.3226487060547Q251.39572561035158,115.31392870605468,251.42832561035155,115.30735870605469Q251.46082561035155,115.30078870605469,251.49372561035156,115.29639870605469Q251.52662561035157,115.29199870605468,251.55982561035157,115.28979870605468Q251.59292561035156,115.28759870605468,251.62612561035155,115.28759870605468Q251.65932561035157,115.28759870605468,251.69242561035156,115.28979870605468Q251.72562561035156,115.29199870605468,251.75852561035157,115.29639870605469Q251.79142561035155,115.30078870605469,251.82392561035155,115.30735870605469Q251.85652561035155,115.31392870605468,251.88852561035156,115.3226487060547Q251.92052561035158,115.33135870605469,251.95192561035157,115.34217870605468Q251.98332561035156,115.35299870605469,252.01392561035155,115.36587870605469Q252.04452561035157,115.3787487060547,252.07422561035156,115.39362870605468Q252.10392561035155,115.40850870605469,252.13252561035156,115.42532870605469Q252.16122561035155,115.44213870605469,252.18862561035155,115.46081870605468Q252.21612561035155,115.47949870605468,252.24222561035157,115.49995870605468Q252.26842561035156,115.52041870605468,252.29312561035155,115.54255870605469Q252.31782561035158,115.56470870605469,252.34112561035155,115.58844870605469Q252.36432561035156,115.61218870605468,252.38592561035156,115.63741870605469Q252.40752561035157,115.6626387060547,252.42732561035157,115.68924870605468Q252.44722561035155,115.71584870605469,252.46522561035155,115.7437187060547Q252.48332561035156,115.77157870605468,252.49952561035155,115.8005787060547L255.86612561035156,121.83805870605468Z" fill="#F6EA9E" fill-opacity="1"/></g><g style="mix-blend-mode:passthrough" transform="matrix(-0.9722107648849487,0.23410741984844208,0.23410741984844208,0.9722107648849487,157.16994277528988,-18.65655392957592)" filter="url(#master_svg3_9_6510)"><path d="M121.08014514160156,132.6557987060547Q121.13264514160156,132.75039870605468,121.20414514160156,132.83159870605468Q121.27554514160155,132.91279870605467,121.36284514160155,132.9768987060547Q121.45004514160156,133.0408987060547,121.54884514160156,133.0847987060547Q121.64774514160156,133.12869870605468,121.75374514160157,133.1503987060547L132.68004514160157,135.39069870605468Q132.71224514160156,135.3972987060547,132.74394514160156,135.40599870605467Q132.77564514160156,135.41469870605468,132.80674514160157,135.4254987060547Q132.83784514160158,135.43629870605469,132.86814514160156,135.44909870605468Q132.89844514160157,135.46189870605468,132.92784514160155,135.4765987060547Q132.95724514160156,135.4913987060547,132.98554514160156,135.50799870605468Q133.01394514160157,135.5246987060547,133.04114514160156,135.54309870605468Q133.06834514160155,135.5615987060547,133.09424514160156,135.5818987060547Q133.12014514160157,135.60209870605468,133.14474514160156,135.6239987060547Q133.16924514160155,135.64589870605468,133.19234514160155,135.6692987060547Q133.21534514160157,135.6927987060547,133.23684514160158,135.71769870605468Q133.25834514160155,135.74259870605468,133.27804514160155,135.7688987060547Q133.29784514160156,135.7950987060547,133.31584514160156,135.8226987060547Q133.33384514160156,135.8501987060547,133.35004514160156,135.87879870605468Q133.36624514160155,135.9073987060547,133.38044514160157,135.93709870605468Q133.39474514160156,135.9666987060547,133.40694514160157,135.9971987060547Q133.41924514160155,136.02779870605468,133.42944514160155,136.0589987060547Q133.43974514160158,136.09029870605468,133.44784514160156,136.1220987060547Q133.45604514160158,136.1539987060547,133.46214514160155,136.18629870605469Q133.46814514160155,136.21859870605468,133.47204514160157,136.25129870605468Q133.47594514160156,136.28389870605469,133.47774514160156,136.3167987060547Q133.47954514160156,136.34959870605468,133.47914514160158,136.3824987060547Q133.47874514160156,136.4153987060547,133.47614514160156,136.44819870605468Q133.47364514160157,136.4808987060547,133.46884514160155,136.5134987060547Q133.46414514160156,136.5459987060547,133.45734514160156,136.57819870605468Q133.45054514160157,136.6103987060547,133.44154514160158,136.6419987060547Q133.43264514160157,136.6736987060547,133.42164514160157,136.7046987060547Q133.41064514160155,136.73569870605468,133.39764514160157,136.76589870605468Q133.38464514160157,136.7960987060547,133.36964514160155,136.8252987060547Q133.35474514160157,136.85459870605467,133.33784514160158,136.88289870605468Q133.32104514160156,136.9110987060547,133.30234514160156,136.9381987060547Q133.28364514160157,136.96519870605468,133.26324514160157,136.99099870605468Q133.24284514160155,137.0167987060547,133.22074514160155,137.0411987060547L125.65944514160157,145.39939870605468Q125.58804514160155,145.4782987060547,125.53484514160156,145.57059870605468Q125.48164514160156,145.66279870605467,125.44904514160156,145.76419870605469Q125.41644514160157,145.8654987060547,125.40594514160156,145.9714987060547Q125.39544514160156,146.07749870605468,125.40744514160156,146.1831987060547L126.68834514160156,157.44549870605468Q126.69204514160157,157.4783987060547,126.69364514160156,157.51149870605468Q126.69514514160156,157.54459870605467,126.69454514160157,157.5776987060547Q126.69384514160157,157.61079870605468,126.69104514160156,157.6438987060547Q126.68824514160156,157.6768987060547,126.68324514160156,157.7095987060547Q126.67824514160156,157.7423987060547,126.67104514160155,157.7746987060547Q126.66384514160157,157.80699870605469,126.65464514160156,157.8387987060547Q126.64534514160155,157.8705987060547,126.63394514160157,157.90179870605468Q126.62254514160156,157.9328987060547,126.60914514160157,157.9631987060547Q126.59574514160155,157.99349870605468,126.58034514160155,158.0227987060547Q126.56504514160156,158.0520987060547,126.54774514160155,158.0803987060547Q126.53044514160156,158.1086987060547,126.51134514160157,158.13569870605468Q126.49214514160155,158.16279870605467,126.47134514160156,158.1884987060547Q126.45044514160156,158.21419870605467,126.42794514160155,158.23849870605468Q126.40544514160156,158.2627987060547,126.38134514160157,158.28549870605468Q126.35724514160157,158.3082987060547,126.33164514160157,158.3293987060547Q126.30614514160156,158.35049870605468,126.27924514160156,158.3698987060547Q126.25244514160156,158.38919870605469,126.22434514160156,158.4067987060547Q126.19624514160157,158.42429870605469,126.16704514160156,158.4398987060547Q126.13784514160156,158.45559870605467,126.10764514160157,158.4692987060547Q126.07744514160156,158.48299870605467,126.04644514160157,158.4945987060547Q126.01544514160156,158.50629870605468,125.98374514160156,158.51579870605468Q125.95204514160156,158.5253987060547,125.91974514160157,158.53289870605468Q125.88744514160156,158.54029870605467,125.85474514160157,158.5455987060547Q125.82204514160156,158.55089870605468,125.78904514160156,158.5539987060547Q125.75614514160156,158.5571987060547,125.72294514160157,158.5580987060547Q125.68984514160157,158.5589987060547,125.65674514160156,158.55779870605468Q125.62364514160157,158.5564987060547,125.59074514160156,158.5530987060547Q125.55774514160156,158.5495987060547,125.52514514160157,158.54399870605468Q125.49244514160156,158.5383987060547,125.46024514160156,158.5305987060547Q125.42804514160156,158.5228987060547,125.39644514160156,158.5129987060547Q125.36484514160156,158.5030987060547,125.33394514160156,158.4911987060547Q125.30304514160156,158.4791987060547,125.27294514160157,158.46519870605468L115.16674514160157,153.76489870605468Q115.06764514160156,153.7188987060547,114.96094514160157,153.6952987060547Q114.85434514160156,153.67169870605468,114.74504514160157,153.67169870605468Q114.63574514160156,153.67169870605468,114.52904514160156,153.6952987060547Q114.42244514160157,153.7188987060547,114.32334514160156,153.76489870605468L104.21704514160156,158.46519870605468Q104.18704514160156,158.4791987060547,104.15614514160157,158.4911987060547Q104.12524514160157,158.5030987060547,104.09364514160157,158.5129987060547Q104.06201514160156,158.5228987060547,104.02981514160156,158.5305987060547Q103.99760514160157,158.5383987060547,103.96495514160156,158.54399870605468Q103.93231514160156,158.5495987060547,103.89936514160156,158.5530987060547Q103.86641514160156,158.5564987060547,103.83331514160156,158.55779870605468Q103.80021514160157,158.5589987060547,103.76709514160156,158.5580987060547Q103.73398514160156,158.5571987060547,103.70100514160157,158.5539987060547Q103.66802514160156,158.55089870605468,103.63532514160156,158.5455987060547Q103.60262514160156,158.54029870605467,103.57034514160156,158.53289870605468Q103.53806514160156,158.5253987060547,103.50635514160156,158.51579870605468Q103.47463514160157,158.50629870605468,103.44363514160156,158.4945987060547Q103.41262514160157,158.48299870605467,103.38244514160156,158.4692987060547Q103.35227514160157,158.45559870605467,103.32307514160156,158.4398987060547Q103.29387514160156,158.42429870605469,103.26577514160157,158.4067987060547Q103.23767514160156,158.38919870605469,103.21080514160157,158.3698987060547Q103.18392514160156,158.35049870605468,103.15838514160157,158.3293987060547Q103.13284514160156,158.3082987060547,103.10876514160157,158.28549870605468Q103.08467514160156,158.2627987060547,103.06215514160156,158.23849870605468Q103.03962514160156,158.21419870605467,103.01875514160156,158.1884987060547Q102.99788514160156,158.16279870605467,102.97876514160156,158.13569870605468Q102.95964514160156,158.1086987060547,102.94235514160157,158.0803987060547Q102.92507514160157,158.0520987060547,102.90968514160156,158.0227987060547Q102.89430514160156,157.99349870605468,102.88090514160156,157.9631987060547Q102.86749514160157,157.9328987060547,102.85612514160157,157.90179870605468Q102.84475514160157,157.8705987060547,102.83547514160156,157.8387987060547Q102.82618514160157,157.80699870605469,102.81902514160156,157.7746987060547Q102.81186514160156,157.7423987060547,102.80685514160156,157.7095987060547Q102.80184514160156,157.6768987060547,102.79902514160156,157.6438987060547Q102.79619514160156,157.61079870605468,102.79555514160157,157.5776987060547Q102.79492514160157,157.54459870605467,102.79647514160156,157.51149870605468Q102.79803514160156,157.4783987060547,102.80177514160157,157.44549870605468L104.08264514160156,146.1831987060547Q104.09464514160156,146.07749870605468,104.08414514160157,145.9714987060547Q104.07365514160156,145.8654987060547,104.04106514160156,145.76419870605469Q104.00847514160156,145.66279870605467,103.95526514160156,145.57059870605468Q103.90206514160157,145.4782987060547,103.83062514160156,145.39939870605468L96.26931514160157,137.0411987060547Q96.24725514160156,137.0167987060547,96.22684514160156,136.99099870605468Q96.20642514160156,136.96519870605468,96.18775514160156,136.9381987060547Q96.16908514160156,136.9110987060547,96.15222514160156,136.88289870605468Q96.13537514160156,136.85459870605467,96.12040514160157,136.8252987060547Q96.10544514160156,136.7960987060547,96.09243514160156,136.76589870605468Q96.07942514160156,136.73569870605468,96.06843514160157,136.7046987060547Q96.05743514160156,136.6736987060547,96.04850514160157,136.6419987060547Q96.03956514160156,136.6103987060547,96.03273514160156,136.57819870605468Q96.02589514160157,136.5459987060547,96.02118514160156,136.5134987060547Q96.01648514160156,136.4808987060547,96.01392514160156,136.44819870605468Q96.01136514160156,136.4153987060547,96.01096514160156,136.3824987060547Q96.01056514160156,136.34959870605468,96.01232514160156,136.3167987060547Q96.01408514160157,136.28389870605469,96.01800514160156,136.25129870605468Q96.02191514160157,136.21859870605468,96.02797514160156,136.18629870605469Q96.03402514160156,136.1539987060547,96.04218514160156,136.1220987060547Q96.05034514160157,136.09029870605468,96.06058514160156,136.0589987060547Q96.07082514160156,136.02779870605468,96.08309514160156,135.9971987060547Q96.09536514160156,135.9666987060547,96.10961514160157,135.93709870605468Q96.12385514160157,135.9073987060547,96.14002514160157,135.87879870605468Q96.15618514160157,135.8501987060547,96.17419514160156,135.8226987060547Q96.19220514160156,135.7950987060547,96.21198514160156,135.7688987060547Q96.23176514160156,135.74259870605468,96.25323514160156,135.71769870605468Q96.27469514160157,135.6927987060547,96.29774514160157,135.6692987060547Q96.32080514160157,135.64589870605468,96.34534514160157,135.6239987060547Q96.36989514160156,135.60209870605468,96.39582514160156,135.5818987060547Q96.42175514160157,135.5615987060547,96.44895514160156,135.54309870605468Q96.47615514160157,135.5246987060547,96.50451514160156,135.50799870605468Q96.53287514160156,135.4913987060547,96.56226514160156,135.4765987060547Q96.59165514160156,135.46189870605468,96.62195514160156,135.44909870605468Q96.65224514160157,135.43629870605469,96.68331514160157,135.4254987060547Q96.71439514160156,135.41469870605468,96.74610514160156,135.40599870605467Q96.77781514160156,135.3972987060547,96.81003514160156,135.39069870605468L107.73634514160156,133.1503987060547Q107.84234514160156,133.12869870605468,107.94114514160157,133.0847987060547Q108.04004514160157,133.0408987060547,108.12724514160156,132.9768987060547Q108.21444514160156,132.91279870605467,108.28594514160156,132.83159870605468Q108.35744514160156,132.75039870605468,108.40994514160157,132.6557987060547L113.87054514160157,122.8109187060547Q113.88664514160156,122.7818187060547,113.90474514160157,122.75385870605469Q113.92274514160157,122.72589870605469,113.94264514160156,122.69919870605469Q113.96244514160156,122.67249870605468,113.98404514160157,122.64717870605469Q114.00564514160156,122.62185870605468,114.02884514160156,122.59802870605469Q114.05214514160156,122.57419870605469,114.07684514160157,122.55195870605469Q114.10164514160157,122.52972870605468,114.12774514160157,122.50918870605469Q114.15394514160155,122.48864870605469,114.18144514160156,122.46989870605469Q114.20894514160156,122.45114870605468,114.23764514160156,122.43426870605468Q114.26624514160156,122.41737870605469,114.29604514160157,122.40243870605468Q114.32574514160156,122.38749870605469,114.35644514160157,122.37456870605469Q114.38704514160156,122.36163870605469,114.41854514160156,122.3507687060547Q114.44994514160156,122.33990870605469,114.48204514160156,122.3311587060547Q114.51414514160156,122.32240870605469,114.54674514160156,122.31580870605468Q114.57944514160157,122.30920870605469,114.61234514160157,122.30479870605468Q114.64534514160157,122.30038870605469,114.67854514160156,122.29816870605468Q114.71174514160157,122.29595870605469,114.74504514160157,122.29595870605469Q114.77834514160156,122.29595870605469,114.81154514160156,122.29816870605468Q114.84474514160156,122.30038870605469,114.87764514160156,122.30479870605468Q114.91064514160156,122.30920870605469,114.94324514160157,122.31580870605468Q114.97594514160156,122.32240870605469,115.00804514160157,122.3311587060547Q115.04014514160156,122.33990870605469,115.07154514160156,122.3507687060547Q115.10304514160157,122.36163870605469,115.13364514160156,122.37456870605469Q115.16434514160156,122.38749870605469,115.19404514160156,122.40243870605468Q115.22374514160157,122.41737870605469,115.25244514160156,122.43426870605468Q115.28114514160157,122.45114870605468,115.30864514160156,122.46989870605469Q115.33614514160156,122.48864870605469,115.36224514160156,122.50918870605469Q115.38844514160157,122.52972870605468,115.41324514160156,122.55195870605469Q115.43794514160156,122.57419870605469,115.46124514160157,122.59802870605469Q115.48444514160155,122.62185870605468,115.50604514160156,122.64717870605469Q115.52764514160157,122.67249870605468,115.54744514160157,122.69919870605469Q115.56734514160156,122.72589870605469,115.58534514160156,122.75385870605469Q115.60334514160157,122.7818187060547,115.61954514160156,122.8109187060547L121.08014514160156,132.6557987060547Z" fill="#F6EA9E" fill-opacity="1"/></g><g style="mix-blend-mode:passthrough" transform="matrix(0.9982628226280212,0.05891842022538185,-0.05891842022538185,0.9982628226280212,10.417289418282678,-12.841822804392507)" filter="url(#master_svg4_9_6511)"><path d="M234.25415295410156,174.9452587060547Q234.30595295410157,175.0410187060547,234.37715295410158,175.1233787060547Q234.44835295410155,175.2057487060547,234.53565295410155,175.2708587060547Q234.62295295410155,175.3359687060547,234.72215295410157,175.38076870605468Q234.82145295410157,175.4255687060547,234.92795295410156,175.4479587060547L238.32385295410157,176.16163870605467Q238.38775295410156,176.17506870605467,238.44935295410156,176.1966987060547Q238.51095295410155,176.21832870605468,238.56925295410156,176.24778870605468Q238.62755295410156,176.27723870605467,238.68145295410156,176.3140287060547Q238.73545295410156,176.3508187060547,238.78415295410156,176.3943087060547Q238.83285295410155,176.43780870605468,238.87555295410155,176.4872587060547Q238.91815295410157,176.5367187060547,238.95405295410157,176.5913087060547Q238.98985295410156,176.64588870605468,239.01825295410157,176.7046787060547Q239.04675295410158,176.76345870605468,239.06735295410155,176.82543870605468Q239.08785295410155,176.8874287060547,239.10015295410156,176.9515587060547Q239.11255295410157,177.01568870605468,239.11635295410156,177.08087870605468Q239.12025295410157,177.14606870605468,239.11565295410156,177.2112087060547Q239.11095295410155,177.27634870605468,239.09795295410157,177.3403287060547Q239.08485295410156,177.40430870605468,239.06355295410157,177.4660487060547Q239.04235295410157,177.52779870605468,239.01315295410157,177.58624870605468Q238.98405295410157,177.6446887060547,238.94755295410155,177.6988587060547Q238.91115295410157,177.7530287060547,238.86785295410155,177.8019887060547L236.47935295410156,180.50819870605469Q236.41015295410156,180.5865987060547,236.35875295410156,180.67759870605468Q236.30725295410156,180.7686987060547,236.27565295410156,180.86839870605468Q236.24415295410157,180.9680987060547,236.23395295410157,181.07219870605468Q236.22375295410157,181.1762987060547,236.23525295410155,181.28019870605468L236.63585295410155,184.8902987060547Q236.63945295410156,184.92339870605468,236.64095295410155,184.95659870605468Q236.64235295410157,184.9897987060547,236.64165295410157,185.0229987060547Q236.64095295410155,185.0561987060547,236.63795295410156,185.08929870605468Q236.63505295410155,185.1223987060547,236.62985295410155,185.15529870605468Q236.62475295410155,185.1880987060547,236.61745295410157,185.22049870605468Q236.61015295410155,185.25289870605468,236.60065295410158,185.2847987060547Q236.59125295410155,185.3166987060547,236.57965295410156,185.34779870605468Q236.56815295410155,185.3789987060547,236.55455295410155,185.4092987060547Q236.54095295410156,185.43969870605468,236.52545295410155,185.4689987060547Q236.50985295410158,185.49839870605467,236.49235295410156,185.5265987060547Q236.47485295410155,185.5548987060547,236.45555295410156,185.5818987060547Q236.43625295410158,185.60899870605468,236.41515295410156,185.63469870605468Q236.39415295410157,185.66039870605468,236.37135295410155,185.6845987060547Q236.34865295410157,185.7088987060547,236.32435295410156,185.73159870605468Q236.30005295410157,185.7541987060547,236.27435295410157,185.77529870605468Q236.24855295410157,185.7962987060547,236.22155295410155,185.81549870605468Q236.19445295410156,185.8347987060547,236.16615295410156,185.85219870605468Q236.13785295410156,185.8695987060547,236.10845295410155,185.8850987060547Q236.07905295410157,185.9005987060547,236.04865295410156,185.9141987060547Q236.01835295410157,185.92769870605468,235.98715295410156,185.9390987060547Q235.95595295410158,185.95059870605468,235.92405295410157,185.95999870605468Q235.89215295410156,185.96939870605468,235.85975295410157,185.9765987060547Q235.82725295410157,185.98389870605467,235.79445295410156,185.9888987060547Q235.76155295410157,185.9939987060547,235.72845295410156,185.99689870605468Q235.69535295410157,185.9996987060547,235.66215295410157,186.00039870605468Q235.62895295410155,186.00109870605468,235.59575295410156,185.99959870605468Q235.56255295410156,185.9979987060547,235.52955295410158,185.99429870605468Q235.49645295410156,185.9905987060547,235.46375295410155,185.9845987060547Q235.43105295410157,185.9786987060547,235.39885295410156,185.9705987060547Q235.36665295410157,185.96259870605468,235.33495295410157,185.95239870605468Q235.30335295410157,185.94219870605468,235.27245295410157,185.9298987060547Q235.24155295410156,185.9175987060547,235.21155295410156,185.9032987060547L232.13519295410157,184.4366987060547Q232.03439295410158,184.3886987060547,231.92547295410156,184.36409870605468Q231.81655295410155,184.33939870605468,231.70488295410155,184.33939870605468Q231.59320295410157,184.33939870605468,231.48428295410156,184.36409870605468Q231.37536295410158,184.3886987060547,231.27456295410155,184.4366987060547L228.19816295410158,185.9032987060547Q228.16816295410158,185.9175987060547,228.13728295410155,185.9298987060547Q228.10640295410155,185.94219870605468,228.07477295410158,185.95239870605468Q228.04314295410157,185.96259870605468,228.01090295410157,185.9705987060547Q227.97867295410157,185.9786987060547,227.94597295410156,185.9845987060547Q227.91326295410155,185.9905987060547,227.88024295410156,185.99429870605468Q227.84722295410157,185.9979987060547,227.81402295410157,185.99959870605468Q227.78082295410155,186.00109870605468,227.74760295410155,186.00039870605468Q227.71437295410155,185.9996987060547,227.68126295410156,185.99689870605468Q227.64815295410156,185.9939987060547,227.61531295410157,185.9888987060547Q227.58246295410157,185.9837987060547,227.55003295410157,185.9765987060547Q227.51759295410156,185.96939870605468,227.48571295410156,185.95999870605468Q227.45383295410156,185.95059870605468,227.42264295410158,185.9390987060547Q227.39145295410157,185.92769870605468,227.36109295410157,185.9141987060547Q227.33073295410156,185.9005987060547,227.30133295410155,185.8850987060547Q227.27194295410158,185.8695987060547,227.24364295410157,185.85219870605468Q227.21533295410157,185.8347987060547,227.18825295410156,185.81549870605468Q227.16117295410157,185.7962987060547,227.13543295410156,185.77529870605468Q227.10968295410157,185.7541987060547,227.08539295410156,185.73159870605468Q227.06110295410156,185.7088987060547,227.03837295410156,185.6845987060547Q227.01564295410157,185.66039870605468,226.99456295410155,185.63469870605468Q226.97349295410157,185.60899870605468,226.95417295410155,185.5818987060547Q226.93485295410156,185.5548987060547,226.91737295410155,185.5265987060547Q226.89989295410157,185.49839870605467,226.88432295410155,185.4689987060547Q226.86876295410156,185.43969870605468,226.85518295410156,185.4092987060547Q226.84159295410157,185.3789987060547,226.83005295410157,185.34779870605468Q226.81852295410155,185.3166987060547,226.80907295410157,185.2847987060547Q226.79963295410155,185.25289870605468,226.79232295410156,185.22049870605468Q226.78501295410157,185.1880987060547,226.77987295410156,185.15529870605468Q226.77473295410155,185.1223987060547,226.77179295410156,185.08929870605468Q226.76884295410156,185.0561987060547,226.76809295410158,185.0229987060547Q226.76735295410157,184.9897987060547,226.76881295410158,184.95659870605468Q226.77028295410156,184.92339870605468,226.77394295410156,184.8902987060547L227.17452295410158,181.28019870605468Q227.18605295410157,181.1762987060547,227.17583295410157,181.07219870605468Q227.16560295410156,180.9680987060547,227.13407295410155,180.86839870605468Q227.10253295410155,180.7686987060547,227.05105295410155,180.67759870605468Q226.99957295410155,180.5865987060547,226.93036295410155,180.50819870605469L224.54186295410156,177.8019887060547Q224.49864295410157,177.7530287060547,224.46216295410156,177.6988587060547Q224.42568295410157,177.6446987060547,224.39656295410157,177.58624870605468Q224.36744295410156,177.52779870605468,224.34616295410157,177.4660487060547Q224.32488295410155,177.40430870605468,224.31182295410156,177.3403287060547Q224.29875295410156,177.27634870605468,224.29412295410157,177.2112087060547Q224.28949295410158,177.14606870605468,224.29337295410156,177.08087870605468Q224.29724295410156,177.01568870605468,224.30957295410155,176.9515587060547Q224.32189295410157,176.8874287060547,224.34245295410156,176.82543870605468Q224.36301295410155,176.76345870605468,224.39145295410157,176.7046787060547Q224.41990295410156,176.64588870605468,224.45575295410157,176.5913087060547Q224.49160295410155,176.5367187060547,224.53424295410156,176.4872587060547Q224.57688295410156,176.43780870605468,224.62560295410157,176.3943087060547Q224.67431295410157,176.3508187060547,224.72827295410156,176.3140287060547Q224.78222295410157,176.27723870605467,224.84051295410157,176.24778870605468Q224.89879295410157,176.21832870605468,224.96041295410157,176.1966987060547Q225.02202295410157,176.17506870605467,225.08593295410157,176.16163870605467L228.48179295410156,175.4479587060547Q228.58834295410156,175.4255687060547,228.68758295410157,175.38076870605468Q228.78682295410155,175.3359687060547,228.87409295410157,175.2708587060547Q228.96136295410156,175.2057487060547,229.03257295410157,175.1233887060547Q229.10379295410155,175.0410187060547,229.15561295410157,174.9452587060547L230.82539295410157,171.85955870605468Q230.84138295410156,171.83000870605468,230.85932295410157,171.80159870605468Q230.87726295410155,171.7731887060547,230.89706295410156,171.7460487060547Q230.91687295410156,171.7189087060547,230.93845295410156,171.69315870605467Q230.96003295410156,171.66739870605468,230.98329295410156,171.6431587060547Q231.00655295410155,171.6189087060547,231.03139295410156,171.59627870605468Q231.05623295410157,171.5736587060547,231.08253295410157,171.5527387060547Q231.10883295410156,171.53182870605468,231.13647295410155,171.51273870605468Q231.16412295410157,171.4936387060547,231.19298295410155,171.4764387060547Q231.22184295410156,171.4592387060547,231.25180295410155,171.4440187060547Q231.28175295410156,171.4287887060547,231.31266295410157,171.41560870605468Q231.34356295410157,171.40242870605468,231.37529295410155,171.3913587060547Q231.40701295410156,171.3802887060547,231.43940295410155,171.37136870605468Q231.47179295410157,171.3624487060547,231.50471295410156,171.3557187060547Q231.53763295410155,171.3489987060547,231.57093295410155,171.34449870605468Q231.60423295410158,171.3399987060547,231.63775295410156,171.3377387060547Q231.67128295410157,171.3354787060547,231.70488295410155,171.3354787060547Q231.73848295410156,171.3354787060547,231.77200295410157,171.3377387060547Q231.80552295410155,171.3399987060547,231.83882295410157,171.34449870605468Q231.87212295410157,171.3489987060547,231.90504295410156,171.3557187060547Q231.93796295410155,171.3624487060547,231.97035295410157,171.37136870605468Q232.00274295410156,171.3802887060547,232.03447295410157,171.3913587060547Q232.06619295410155,171.40242870605468,232.09710295410156,171.41560870605468Q232.12800295410156,171.4287887060547,232.15796295410155,171.4440187060547Q232.18791295410156,171.4592387060547,232.21677295410157,171.4764387060547Q232.24564295410156,171.4936387060547,232.27328295410157,171.51273870605468Q232.30092295410157,171.53182870605468,232.32722295410156,171.5527387060547Q232.35353295410155,171.5736587060547,232.37836295410156,171.59627870605468Q232.40320295410157,171.6189087060547,232.42646295410157,171.6431587060547Q232.44972295410156,171.66739870605468,232.47130295410156,171.6931487060547Q232.49289295410156,171.7189087060547,232.51269295410157,171.7460487060547Q232.53250295410157,171.7731887060547,232.55043295410155,171.80159870605468Q232.56837295410156,171.83000870605468,232.58436295410155,171.85955870605468L234.25415295410156,174.9452587060547Z" fill="#F6EA9E" fill-opacity="1"/></g><g style="mix-blend-mode:passthrough" transform="matrix(-0.9982628226280212,0.05891842022538185,0.05891842022538185,0.9982628226280212,225.8347744710357,-6.658701645358235)" filter="url(#master_svg5_9_6514)"><path d="M129.60522717285156,184.9452587060547Q129.65702717285157,185.0410187060547,129.72822717285158,185.1233787060547Q129.79942717285155,185.2057487060547,129.88672717285155,185.2708587060547Q129.97402717285155,185.3359687060547,130.07322717285157,185.38076870605468Q130.17252717285157,185.4255687060547,130.27902717285156,185.4479587060547L133.67492717285157,186.16163870605467Q133.73882717285156,186.17506870605467,133.80042717285156,186.1966987060547Q133.86202717285155,186.21832870605468,133.92032717285156,186.24778870605468Q133.97862717285156,186.27723870605467,134.03252717285156,186.3140287060547Q134.08652717285156,186.3508187060547,134.13522717285156,186.3943087060547Q134.18392717285155,186.43780870605468,134.22662717285155,186.4872587060547Q134.26922717285157,186.5367187060547,134.30512717285157,186.5913087060547Q134.34092717285156,186.64588870605468,134.36932717285157,186.7046787060547Q134.39782717285158,186.76345870605468,134.41842717285155,186.82543870605468Q134.43892717285155,186.8874287060547,134.45122717285156,186.9515587060547Q134.46362717285157,187.01568870605468,134.46742717285156,187.08087870605468Q134.47132717285157,187.14606870605468,134.46672717285156,187.2112087060547Q134.46202717285155,187.27634870605468,134.44902717285157,187.3403287060547Q134.43592717285156,187.40430870605468,134.41462717285157,187.4660487060547Q134.39342717285157,187.52779870605468,134.36422717285157,187.58624870605468Q134.33512717285157,187.6446887060547,134.29862717285155,187.6988587060547Q134.26222717285157,187.7530287060547,134.21892717285155,187.8019887060547L131.83042717285156,190.50819870605469Q131.76122717285156,190.5865987060547,131.70982717285156,190.67759870605468Q131.65832717285156,190.7686987060547,131.62672717285156,190.86839870605468Q131.59522717285157,190.9680987060547,131.58502717285157,191.07219870605468Q131.57482717285157,191.1762987060547,131.58632717285155,191.28019870605468L131.98692717285155,194.8902987060547Q131.99052717285156,194.92339870605468,131.99202717285155,194.95659870605468Q131.99342717285157,194.9897987060547,131.99272717285157,195.0229987060547Q131.99202717285155,195.0561987060547,131.98902717285156,195.08929870605468Q131.98612717285155,195.1223987060547,131.98092717285155,195.15529870605468Q131.97582717285155,195.1880987060547,131.96852717285157,195.22049870605468Q131.96122717285155,195.25289870605468,131.95172717285158,195.2847987060547Q131.94232717285155,195.3166987060547,131.93072717285156,195.34779870605468Q131.91922717285155,195.3789987060547,131.90562717285155,195.4092987060547Q131.89202717285156,195.43969870605468,131.87652717285155,195.4689987060547Q131.86092717285158,195.49839870605467,131.84342717285156,195.5265987060547Q131.82592717285155,195.5548987060547,131.80662717285156,195.5818987060547Q131.78732717285158,195.60899870605468,131.76622717285156,195.63469870605468Q131.74522717285157,195.66039870605468,131.72242717285155,195.6845987060547Q131.69972717285157,195.7088987060547,131.67542717285156,195.73159870605468Q131.65112717285157,195.7541987060547,131.62542717285157,195.77529870605468Q131.59962717285157,195.7962987060547,131.57262717285155,195.81549870605468Q131.54552717285156,195.8347987060547,131.51722717285156,195.85219870605468Q131.48892717285156,195.8695987060547,131.45952717285155,195.8850987060547Q131.43012717285157,195.9005987060547,131.39972717285156,195.9141987060547Q131.36942717285157,195.92769870605468,131.33822717285156,195.9390987060547Q131.30702717285158,195.95059870605468,131.27512717285157,195.95999870605468Q131.24322717285156,195.96939870605468,131.21082717285157,195.9765987060547Q131.17832717285157,195.98389870605467,131.14552717285156,195.9888987060547Q131.11262717285157,195.9939987060547,131.07952717285156,195.99689870605468Q131.04642717285157,195.9996987060547,131.01322717285157,196.00039870605468Q130.98002717285155,196.00109870605468,130.94682717285156,195.99959870605468Q130.91362717285156,195.9979987060547,130.88062717285158,195.99429870605468Q130.84752717285156,195.9905987060547,130.81482717285155,195.9845987060547Q130.78212717285157,195.9786987060547,130.74992717285156,195.9705987060547Q130.71772717285157,195.96259870605468,130.68602717285157,195.95239870605468Q130.65442717285157,195.94219870605468,130.62352717285157,195.9298987060547Q130.59262717285156,195.9175987060547,130.56262717285156,195.9032987060547L127.48626717285157,194.4366987060547Q127.38546717285156,194.3886987060547,127.27654717285156,194.36409870605468Q127.16762717285157,194.33939870605468,127.05595717285156,194.33939870605468Q126.94427717285156,194.33939870605468,126.83535717285156,194.36409870605468Q126.72643717285156,194.3886987060547,126.62563717285155,194.4366987060547L123.54923717285156,195.9032987060547Q123.51923717285156,195.9175987060547,123.48835717285156,195.9298987060547Q123.45747717285157,195.94219870605468,123.42584717285156,195.95239870605468Q123.39421717285157,195.96259870605468,123.36197717285157,195.9705987060547Q123.32974717285157,195.9786987060547,123.29704717285156,195.9845987060547Q123.26433717285157,195.9905987060547,123.23131717285156,195.99429870605468Q123.19829717285157,195.9979987060547,123.16509717285156,195.99959870605468Q123.13189717285157,196.00109870605468,123.09867717285157,196.00039870605468Q123.06544717285156,195.9996987060547,123.03233717285156,195.99689870605468Q122.99922717285156,195.9939987060547,122.96638717285157,195.9888987060547Q122.93353717285156,195.9837987060547,122.90110717285157,195.9765987060547Q122.86866717285156,195.96939870605468,122.83678717285156,195.95999870605468Q122.80490717285156,195.95059870605468,122.77371717285156,195.9390987060547Q122.74252717285157,195.92769870605468,122.71216717285157,195.9141987060547Q122.68180717285156,195.9005987060547,122.65240717285157,195.8850987060547Q122.62301717285156,195.8695987060547,122.59471717285156,195.85219870605468Q122.56640717285157,195.8347987060547,122.53932717285156,195.81549870605468Q122.51224717285156,195.7962987060547,122.48650717285156,195.77529870605468Q122.46075717285156,195.7541987060547,122.43646717285156,195.73159870605468Q122.41217717285156,195.7088987060547,122.38944717285156,195.6845987060547Q122.36671717285157,195.66039870605468,122.34563717285157,195.63469870605468Q122.32456717285156,195.60899870605468,122.30524717285157,195.5818987060547Q122.28592717285156,195.5548987060547,122.26844717285157,195.5265987060547Q122.25096717285156,195.49839870605467,122.23539717285156,195.4689987060547Q122.21983717285156,195.43969870605468,122.20625717285156,195.4092987060547Q122.19266717285156,195.3789987060547,122.18112717285156,195.34779870605468Q122.16959717285157,195.3166987060547,122.16014717285157,195.2847987060547Q122.15070717285157,195.25289870605468,122.14339717285156,195.22049870605468Q122.13608717285156,195.1880987060547,122.13094717285156,195.15529870605468Q122.12580717285157,195.1223987060547,122.12286717285156,195.08929870605468Q122.11991717285156,195.0561987060547,122.11916717285156,195.0229987060547Q122.11842717285157,194.9897987060547,122.11988717285156,194.95659870605468Q122.12135717285156,194.92339870605468,122.12501717285156,194.8902987060547L122.52559717285156,191.28019870605468Q122.53712717285157,191.1762987060547,122.52690717285157,191.07219870605468Q122.51667717285156,190.9680987060547,122.48514717285157,190.86839870605468Q122.45360717285156,190.7686987060547,122.40212717285156,190.67759870605468Q122.35064717285157,190.5865987060547,122.28143717285157,190.50819870605469L119.89293717285156,187.8019887060547Q119.84971717285157,187.7530287060547,119.81323717285156,187.6988587060547Q119.77675717285156,187.6446987060547,119.74763717285157,187.58624870605468Q119.71851717285156,187.52779870605468,119.69723717285156,187.4660487060547Q119.67595717285157,187.40430870605468,119.66289717285156,187.3403287060547Q119.64982717285156,187.27634870605468,119.64519717285157,187.2112087060547Q119.64056717285156,187.14606870605468,119.64444717285156,187.08087870605468Q119.64831717285156,187.01568870605468,119.66064717285157,186.9515587060547Q119.67296717285156,186.8874287060547,119.69352717285156,186.82543870605468Q119.71408717285156,186.76345870605468,119.74252717285157,186.7046787060547Q119.77097717285156,186.64588870605468,119.80682717285157,186.5913087060547Q119.84267717285157,186.5367187060547,119.88531717285156,186.4872587060547Q119.92795717285156,186.43780870605468,119.97667717285157,186.3943087060547Q120.02538717285157,186.3508187060547,120.07934717285156,186.3140287060547Q120.13329717285156,186.27723870605467,120.19158717285157,186.24778870605468Q120.24986717285157,186.21832870605468,120.31148717285156,186.1966987060547Q120.37309717285156,186.17506870605467,120.43700717285157,186.16163870605467L123.83286717285156,185.4479587060547Q123.93941717285156,185.4255687060547,124.03865717285156,185.38076870605468Q124.13789717285157,185.3359687060547,124.22516717285156,185.2708587060547Q124.31243717285156,185.2057487060547,124.38364717285157,185.1233887060547Q124.45486717285156,185.0410187060547,124.50668717285156,184.9452587060547L126.17646717285156,181.85955870605468Q126.19245717285156,181.83000870605468,126.21039717285156,181.80159870605468Q126.22833717285157,181.7731887060547,126.24813717285156,181.7460487060547Q126.26794717285156,181.7189087060547,126.28952717285156,181.69315870605467Q126.31110717285156,181.66739870605468,126.33436717285156,181.6431587060547Q126.35762717285156,181.6189087060547,126.38246717285156,181.59627870605468Q126.40730717285156,181.5736587060547,126.43360717285157,181.5527387060547Q126.45990717285156,181.53182870605468,126.48754717285156,181.51273870605468Q126.51519717285156,181.4936387060547,126.54405717285157,181.4764387060547Q126.57291717285156,181.4592387060547,126.60287717285156,181.4440187060547Q126.63282717285156,181.4287887060547,126.66373717285157,181.41560870605468Q126.69463717285156,181.40242870605468,126.72636717285157,181.3913587060547Q126.75808717285156,181.3802887060547,126.79047717285157,181.37136870605468Q126.82286717285156,181.3624487060547,126.85578717285156,181.3557187060547Q126.88870717285157,181.3489987060547,126.92200717285156,181.34449870605468Q126.95530717285156,181.3399987060547,126.98882717285156,181.3377387060547Q127.02235717285156,181.3354787060547,127.05595717285156,181.3354787060547Q127.08955717285156,181.3354787060547,127.12307717285157,181.3377387060547Q127.15659717285156,181.3399987060547,127.18989717285156,181.34449870605468Q127.22319717285157,181.3489987060547,127.25611717285156,181.3557187060547Q127.28903717285156,181.3624487060547,127.32142717285156,181.37136870605468Q127.35381717285156,181.3802887060547,127.38554717285156,181.3913587060547Q127.41726717285157,181.40242870605468,127.44817717285156,181.41560870605468Q127.47907717285156,181.4287887060547,127.50903717285156,181.4440187060547Q127.53898717285156,181.4592387060547,127.56784717285156,181.4764387060547Q127.59671717285156,181.4936387060547,127.62435717285156,181.51273870605468Q127.65199717285157,181.53182870605468,127.67829717285156,181.5527387060547Q127.70460717285157,181.5736587060547,127.72943717285156,181.59627870605468Q127.75427717285156,181.6189087060547,127.77753717285157,181.6431587060547Q127.80079717285156,181.66739870605468,127.82237717285156,181.6931487060547Q127.84396717285156,181.7189087060547,127.86376717285157,181.7460487060547Q127.88357717285156,181.7731887060547,127.90150717285157,181.80159870605468Q127.91944717285156,181.83000870605468,127.93543717285156,181.85955870605468L129.60522717285156,184.9452587060547Z" fill="#F6EA9E" fill-opacity="1"/></g><g style="mix-blend-mode:passthrough" transform="matrix(0.9468642473220825,-0.32163363695144653,0.32163363695144653,0.9468642473220825,-11.106675586502206,64.08016042524378)" filter="url(#master_svg6_9_6513)"><path d="M216.77515607910158,77.37527834472657Q216.82755607910156,77.46627834472656,216.89775607910155,77.54437834472657Q216.96785607910155,77.62257834472656,217.05275607910156,77.68437834472657Q217.13755607910156,77.74627834472656,217.23345607910156,77.78917834472657Q217.32925607910155,77.83197834472656,217.43195607910155,77.85407834472656L228.92455607910156,80.32077834472656Q228.98845607910155,80.33447834472656,229.05005607910158,80.35637834472656Q229.11165607910158,80.37827834472657,229.16985607910158,80.40807834472656Q229.22805607910158,80.43777834472657,229.28195607910158,80.47487834472656Q229.33575607910157,80.51197834472656,229.38435607910156,80.55577834472656Q229.43285607910155,80.59957834472657,229.47535607910157,80.64927834472657Q229.51775607910156,80.69897834472656,229.55335607910155,80.75377834472656Q229.58895607910156,80.80857834472656,229.61715607910156,80.86757834472657Q229.64535607910156,80.92657834472656,229.66555607910158,80.98877834472657Q229.68585607910157,81.05097834472656,229.69775607910157,81.11517834472656Q229.70975607910157,81.17947834472656,229.71325607910157,81.24477834472657Q229.71675607910157,81.30997834472656,229.71175607910158,81.37517834472656Q229.70675607910155,81.44037834472657,229.69335607910156,81.50437834472656Q229.67985607910157,81.56827834472656,229.65815607910156,81.62997834472657Q229.63655607910155,81.69167834472657,229.60695607910156,81.74997834472657Q229.57745607910158,81.80837834472656,229.54065607910155,81.86227834472656Q229.50375607910155,81.91627834472656,229.46015607910158,81.96507834472656L221.59985607910156,90.75547834472655Q221.53015607910157,90.83327834472657,221.47815607910155,90.92387834472656Q221.42605607910156,91.01447834472657,221.39385607910157,91.11387834472656Q221.36175607910155,91.21327834472656,221.35075607910156,91.31727834472656Q221.33985607910157,91.42117834472657,221.35055607910158,91.52507834472657L222.56795607910158,103.27497834472656Q222.57475607910158,103.34017834472655,222.57295607910157,103.40567834472657Q222.57115607910157,103.47117834472655,222.56075607910157,103.53587834472657Q222.55045607910156,103.60057834472656,222.53175607910157,103.66337834472657Q222.51305607910155,103.72617834472656,222.48635607910157,103.78597834472657Q222.45955607910156,103.84577834472657,222.42525607910156,103.90157834472656Q222.39095607910156,103.95747834472655,222.34965607910158,104.00827834472656Q222.30835607910157,104.05917834472656,222.26075607910155,104.10427834472657Q222.21315607910157,104.14927834472655,222.16015607910157,104.18777834472655Q222.10705607910157,104.22617834472656,222.04945607910156,104.25737834472656Q221.99185607910155,104.28857834472656,221.93065607910157,104.31197834472655Q221.86945607910155,104.33537834472656,221.80575607910157,104.35067834472656Q221.74195607910156,104.36587834472655,221.67685607910155,104.37267834472657Q221.61165607910158,104.37947834472656,221.54615607910156,104.37767834472656Q221.48065607910155,104.37587834472657,221.41595607910156,104.36557834472657Q221.35125607910157,104.35527834472657,221.28845607910156,104.33657834472656Q221.22565607910155,104.31787834472657,221.16575607910156,104.29117834472656L210.43425607910157,99.50197834472655Q210.33815607910157,99.45907834472656,210.23505607910155,99.43707834472656Q210.13205607910157,99.41517834472657,210.02675607910157,99.41517834472657Q209.92145607910157,99.41517834472657,209.81845607910157,99.43707834472656Q209.71535607910155,99.45907834472656,209.61925607910155,99.50197834472655L198.88775607910156,104.29117834472656Q198.82785607910157,104.31787834472657,198.76505607910156,104.33657834472656Q198.70225607910157,104.35527834472657,198.63755607910156,104.36557834472657Q198.57285607910157,104.37587834472657,198.50735607910156,104.37767834472656Q198.44185607910157,104.37947834472656,198.37668607910157,104.37267834472657Q198.31151607910155,104.36587834472655,198.24778607910156,104.35067834472656Q198.18405607910157,104.33537834472656,198.12285607910155,104.31197834472655Q198.06165607910157,104.28857834472656,198.00403607910155,104.25737834472656Q197.94641607910157,104.22617834472656,197.89336607910155,104.18777834472655Q197.84030607910157,104.14927834472655,197.79271607910155,104.10427834472657Q197.74513607910157,104.05917834472656,197.70383607910156,104.00827834472656Q197.66253607910156,103.95747834472655,197.62822607910155,103.90157834472656Q197.59391607910158,103.84577834472657,197.56718607910156,103.78597834472657Q197.54045607910157,103.72617834472656,197.52176607910155,103.66337834472657Q197.50306607910156,103.60057834472656,197.49272607910157,103.53587834472657Q197.48238607910156,103.47117834472655,197.48057607910155,103.40567834472657Q197.47876607910158,103.34017834472655,197.48551607910156,103.27497834472656L198.70295607910157,91.52507834472657Q198.71365607910155,91.42117834472657,198.70275607910156,91.31727834472656Q198.69175607910157,91.21327834472656,198.65955607910155,91.11387834472656Q198.62745607910156,91.01447834472657,198.57535607910157,90.92387834472656Q198.52335607910157,90.83327834472657,198.45365607910156,90.75547834472655L190.59332607910156,81.96507834472656Q190.54975607910157,81.91627834472656,190.51289607910155,81.86227834472656Q190.47602607910156,81.80837834472656,190.44651607910157,81.74997834472657Q190.41699607910155,81.69167834472657,190.39532607910155,81.62997834472657Q190.37364607910158,81.56827834472656,190.36018607910157,81.50437834472656Q190.34673607910156,81.44037834472657,190.34171607910156,81.37517834472656Q190.33669607910156,81.30997834472656,190.34021607910157,81.24477834472657Q190.34372607910157,81.17947834472656,190.35570607910157,81.11517834472656Q190.36768607910156,81.05097834472656,190.38793607910156,80.98877834472657Q190.40818607910157,80.92657834472656,190.43634607910155,80.86757834472657Q190.46451607910157,80.80857834472656,190.50012607910156,80.75377834472656Q190.53573607910155,80.69897834472656,190.57817607910155,80.64927834472657Q190.62061607910155,80.59947834472656,190.66916607910156,80.55577834472656Q190.71772607910157,80.51197834472656,190.77156607910158,80.47487834472656Q190.82540607910155,80.43777834472657,190.88361607910156,80.40807834472656Q190.94182607910156,80.37827834472657,191.00340607910155,80.35637834472656Q191.06499607910158,80.33447834472656,191.12891607910157,80.32077834472656L202.62155607910157,77.85407834472656Q202.72425607910156,77.83197834472656,202.82005607910156,77.78917834472657Q202.91595607910156,77.74627834472656,203.00075607910156,77.68437834472657Q203.08565607910157,77.62257834472656,203.15575607910156,77.54437834472657Q203.22595607910156,77.46627834472656,203.27835607910157,77.37527834472657L209.16015607910157,67.15980834472656Q209.17645607910157,67.13140834472657,209.19465607910155,67.10413834472656Q209.21285607910156,67.07686834472656,209.23275607910156,67.05084834472656Q209.25265607910157,67.02482834472656,209.27425607910158,67.00016834472656Q209.29585607910155,66.97549834472656,209.31905607910156,66.95230834472656Q209.34215607910156,66.92910834472656,209.36675607910155,66.90747834472656Q209.39145607910157,66.88585834472656,209.41735607910155,66.86588834472656Q209.44335607910156,66.84590834472657,209.47065607910156,66.82768834472657Q209.49785607910155,66.80945834472656,209.52625607910156,66.79305834472656Q209.55465607910156,66.77664834472657,209.58395607910157,66.76213834472657Q209.61335607910155,66.74762834472656,209.64365607910156,66.73507834472656Q209.67395607910157,66.72251834472657,209.70495607910158,66.71197834472656Q209.73595607910156,66.70142834472657,209.76765607910156,66.69293834472656Q209.79925607910155,66.68444834472656,209.83145607910157,66.67804834472656Q209.86355607910156,66.67164834472656,209.89605607910156,66.66735834472657Q209.92855607910155,66.66307834472656,209.96125607910156,66.66092834472656Q209.99395607910157,66.65878834472656,210.02675607910157,66.65878834472656Q210.05955607910155,66.65878834472656,210.09225607910156,66.66092834472656Q210.12495607910157,66.66307834472656,210.15745607910156,66.66735834472657Q210.18995607910156,66.67164834472656,210.22205607910155,66.67804834472656Q210.25415607910156,66.68444834472656,210.28585607910156,66.69293834472656Q210.31755607910156,66.70142834472657,210.34855607910157,66.71197834472656Q210.37955607910158,66.72251834472657,210.40985607910156,66.73507834472656Q210.44015607910157,66.74762834472656,210.46955607910155,66.76213834472657Q210.49885607910156,66.77664834472657,210.52725607910156,66.79305834472656Q210.55565607910157,66.80945834472656,210.58285607910156,66.82768834472657Q210.61015607910156,66.84590834472657,210.63605607910156,66.86588834472656Q210.66205607910157,66.88585834472656,210.68675607910157,66.90747834472656Q210.71135607910156,66.92910834472656,210.73445607910156,66.95230834472656Q210.75765607910157,66.97549834472656,210.77925607910157,67.00016834472656Q210.80085607910155,67.02482834472656,210.82075607910156,67.05084834472656Q210.84065607910156,67.07686834472656,210.85885607910157,67.10413834472656Q210.87705607910158,67.13140834472657,210.89335607910155,67.15980834472656L216.77515607910158,77.37527834472657Z" fill="#F6EA9E" fill-opacity="1"/></g><g style="mix-blend-mode:passthrough" transform="matrix(-0.9468642473220825,-0.32163363695144653,-0.32163363695144653,0.9468642473220825,278.37607492099687,45.98939137657999)" filter="url(#master_svg7_9_6515)"><path d="M149.08283850097655,84.12213439941407Q149.13513850097655,84.21335439941406,149.20523850097658,84.29170439941406Q149.27533850097657,84.37005439941406,149.36023850097655,84.43211439941406Q149.44503850097655,84.49417439941406,149.54103850097655,84.53722439941406Q149.63693850097656,84.58028439941407,149.73973850097656,84.60244439941407L156.64203850097655,86.09084439941407Q156.70583850097657,86.10460439941406,156.76723850097656,86.12653439941406Q156.82873850097656,86.14847439941406,156.88683850097655,86.17821439941406Q156.94493850097655,86.20795439941406,156.99863850097657,86.24499439941407Q157.05243850097656,86.28203439941406,157.10093850097655,86.32574439941406Q157.14933850097657,86.36945439941407,157.19173850097656,86.41909439941406Q157.23413850097657,86.46878439941406,157.26973850097656,86.52348439941406Q157.30523850097657,86.57818439941406,157.33343850097657,86.63708439941406Q157.36153850097656,86.69598439941406,157.38183850097656,86.75798439941406Q157.40203850097657,86.82008439941406,157.41413850097655,86.88418439941407Q157.42613850097655,86.94838439941407,157.42973850097655,87.01358439941406Q157.43323850097656,87.07868439941406,157.42833850097657,87.14378439941406Q157.42343850097657,87.20888439941406,157.41003850097655,87.27278439941406Q157.39673850097657,87.33668439941407,157.37523850097656,87.39828439941407Q157.35363850097656,87.45988439941407,157.32433850097655,87.51818439941407Q157.29493850097657,87.57648439941406,157.25823850097657,87.63048439941406Q157.22153850097658,87.68448439941406,157.17813850097656,87.73318439941406L152.45033850097656,93.04528439941406Q152.38103850097656,93.12308439941407,152.32933850097658,93.21348439941406Q152.27763850097656,93.30378439941407,152.24563850097655,93.40288439941406Q152.21363850097657,93.50198439941406,152.20273850097655,93.60558439941406Q152.19183850097656,93.70908439941407,152.20253850097657,93.81268439941407L152.93413850097656,100.90668439941406Q152.93753850097656,100.93928439941406,152.93873850097657,100.97198439941405Q152.93993850097655,101.00468439941406,152.93903850097655,101.03738439941407Q152.93813850097655,101.07018439941406,152.93503850097656,101.10278439941406Q152.93193850097657,101.13538439941406,152.92673850097657,101.16768439941407Q152.92163850097657,101.19998439941406,152.91433850097656,101.23198439941406Q152.90703850097657,101.26388439941407,152.89763850097657,101.29528439941406Q152.88823850097657,101.32668439941406,152.87683850097656,101.35738439941406Q152.86543850097655,101.38808439941405,152.85203850097656,101.41788439941406Q152.83873850097655,101.44778439941406,152.82343850097655,101.47678439941406Q152.80803850097655,101.50568439941406,152.79093850097655,101.53358439941407Q152.77373850097655,101.56148439941407,152.75473850097657,101.58818439941406Q152.73583850097657,101.61488439941407,152.71513850097656,101.64028439941407Q152.69453850097656,101.66568439941406,152.67223850097656,101.68968439941406Q152.64993850097656,101.71368439941406,152.62613850097657,101.73618439941407Q152.60233850097657,101.75868439941407,152.57713850097656,101.77958439941406Q152.55183850097657,101.80038439941407,152.52533850097657,101.81958439941405Q152.49883850097655,101.83878439941407,152.47103850097656,101.85618439941406Q152.44333850097655,101.87358439941406,152.41453850097656,101.88918439941406Q152.38573850097657,101.90478439941407,152.35593850097655,101.91838439941407Q152.32613850097655,101.93198439941406,152.29553850097656,101.94368439941407Q152.26493850097657,101.95538439941406,152.23363850097655,101.96498439941406Q152.20233850097657,101.97458439941406,152.17053850097656,101.98218439941407Q152.13863850097655,101.98978439941406,152.10633850097656,101.99518439941406Q152.07403850097657,102.00068439941407,152.04153850097657,102.00398439941407Q152.00893850097657,102.00738439941406,151.97623850097656,102.00858439941406Q151.94343850097655,102.00978439941406,151.91073850097655,102.00888439941406Q151.87803850097657,102.00788439941407,151.84543850097657,102.00478439941406Q151.81283850097657,102.00178439941406,151.78043850097657,101.99658439941406Q151.74813850097655,101.99128439941407,151.71623850097657,101.98398439941406Q151.68433850097657,101.97668439941407,151.65293850097657,101.96738439941406Q151.62153850097656,101.95798439941406,151.59083850097656,101.94658439941406Q151.56013850097656,101.93508439941407,151.53023850097657,101.92168439941406L145.09713850097657,99.03728439941406Q145.00063850097655,98.99398439941406,144.89723850097656,98.97188439941407Q144.79373850097656,98.94978439941406,144.68803850097657,98.94978439941406Q144.58223850097656,98.94978439941406,144.47883850097656,98.97188439941407Q144.37533850097657,98.99398439941406,144.27883850097658,99.03728439941406L137.84572850097658,101.92168439941406Q137.81584850097656,101.93508439941407,137.78515850097656,101.94658439941406Q137.75446850097657,101.95798439941406,137.72308850097656,101.96738439941406Q137.69171850097655,101.97668439941407,137.65979850097656,101.98398439941406Q137.62786850097658,101.99138439941406,137.59553850097657,101.99658439941406Q137.56320850097657,102.00178439941406,137.53060850097657,102.00478439941406Q137.49800850097657,102.00788439941407,137.46527850097655,102.00888439941406Q137.43253850097656,102.00978439941406,137.39981850097655,102.00858439941406Q137.36708850097656,102.00738439941406,137.33451850097657,102.00398439941407Q137.30193850097658,102.00068439941407,137.26964850097656,101.99518439941406Q137.23736850097657,101.98978439941406,137.20549850097657,101.98218439941407Q137.17363850097655,101.97458439941406,137.14234850097657,101.96498439941406Q137.11104850097655,101.95538439941406,137.08044850097656,101.94368439941407Q137.04984850097657,101.93198439941406,137.02007850097655,101.91838439941407Q136.99030850097657,101.90478439941407,136.96148850097657,101.88918439941406Q136.93267850097655,101.87358439941406,136.90493850097656,101.85618439941406Q136.87720850097656,101.83878439941407,136.85066850097655,101.81958439941405Q136.82412850097657,101.80038439941407,136.79890850097655,101.77958439941406Q136.77367850097656,101.75868439941407,136.74987850097656,101.73618439941407Q136.72607850097657,101.71368439941406,136.70378850097657,101.68968439941406Q136.68150850097658,101.66568439941406,136.66084850097656,101.64028439941407Q136.64017850097656,101.61488439941407,136.62121850097657,101.58818439941406Q136.60226850097655,101.56148439941407,136.58508850097655,101.53358439941407Q136.56791850097656,101.50568439941406,136.55260850097656,101.47678439941406Q136.53730850097656,101.44778439941406,136.52391850097655,101.41788439941406Q136.51053850097657,101.38808439941405,136.49913850097656,101.35738439941406Q136.48773850097658,101.32668439941406,136.47837850097656,101.29528439941406Q136.46900850097657,101.26388439941407,136.46171850097656,101.23198439941406Q136.45441850097657,101.19998439941406,136.44923850097655,101.16768439941407Q136.44404850097655,101.13538439941406,136.44097850097657,101.10278439941406Q136.43791850097656,101.07018439941406,136.43699850097656,101.03738439941407Q136.43607850097655,101.00468439941406,136.43729850097657,100.97198439941405Q136.43851850097656,100.93928439941406,136.44187850097657,100.90668439941406L137.17344850097658,93.81268439941407Q137.18412850097656,93.70908439941407,137.17323850097657,93.60558439941406Q137.16234850097655,93.50198439941406,137.13036850097657,93.40288439941406Q137.09837850097657,93.30378439941407,137.04665850097655,93.21348439941406Q136.99493850097656,93.12308439941407,136.92570850097655,93.04528439941406L132.19781850097655,87.73318439941406Q132.15442850097656,87.68448439941406,132.11773850097657,87.63048439941406Q132.08104850097655,87.57648439941406,132.05168850097655,87.51818439941407Q132.02232850097656,87.45988439941407,132.00079850097657,87.39828439941407Q131.97925850097656,87.33668439941407,131.96591850097656,87.27278439941406Q131.95257850097656,87.20888439941406,131.94765850097656,87.14378439941406Q131.94273850097656,87.07868439941406,131.94630850097656,87.01358439941406Q131.94988850097656,86.94838439941407,131.96190850097656,86.88418439941407Q131.97392850097657,86.82008439941406,131.99418850097655,86.75798439941406Q132.01444850097656,86.69598439941406,132.04259850097657,86.63708439941406Q132.07074850097655,86.57818439941406,132.10630850097655,86.52348439941406Q132.14187850097656,86.46878439941406,132.18425850097657,86.41909439941406Q132.22663850097655,86.36945439941407,132.27510850097656,86.32574439941406Q132.32357850097657,86.28203439941406,132.37731850097657,86.24499439941407Q132.43105850097658,86.20795439941406,132.48915850097657,86.17821439941406Q132.54726850097657,86.14847439941406,132.60873850097656,86.12653439941406Q132.67020850097657,86.10460439941406,132.73401850097656,86.09084439941407L139.63630850097655,84.60244439941407Q139.73908850097655,84.58028439941407,139.83500850097656,84.53722439941406Q139.93091850097656,84.49417439941406,140.01578850097656,84.43211439941406Q140.10065850097655,84.37005439941406,140.17075850097658,84.29170439941406Q140.24085850097657,84.21335439941406,140.29313850097657,84.12213439941407L143.82033850097656,77.96732439941407Q143.83673850097657,77.93883439941406,143.85483850097657,77.91148439941406Q143.87303850097658,77.88412439941406,143.89293850097656,77.85801439941406Q143.91283850097656,77.83191439941406,143.93443850097657,77.80716439941406Q143.95603850097658,77.78242439941407,143.97923850097655,77.75914439941407Q144.00233850097658,77.73587439941406,144.02703850097657,77.71416439941406Q144.05163850097657,77.69246439941406,144.07763850097655,77.67242439941407Q144.10363850097656,77.65237439941406,144.13093850097655,77.63408439941406Q144.15823850097655,77.61579439941406,144.18663850097656,77.59932439941406Q144.21503850097656,77.58286439941406,144.24443850097657,77.56830439941406Q144.27393850097656,77.55373439941407,144.30423850097657,77.54113439941406Q144.33453850097655,77.52853439941406,144.36563850097656,77.51794439941406Q144.39673850097657,77.50735439941407,144.42843850097657,77.49883439941406Q144.46013850097657,77.49031439941406,144.49233850097656,77.48388439941407Q144.52453850097658,77.47746439941406,144.55703850097657,77.47316439941406Q144.58963850097655,77.46886439941406,144.62243850097656,77.46670439941406Q144.65513850097656,77.46455439941406,144.68803850097657,77.46455439941406Q144.72083850097655,77.46455439941406,144.75363850097656,77.46670439941406Q144.78633850097657,77.46886439941406,144.81893850097657,77.47316439941406Q144.85143850097657,77.47746439941406,144.88363850097656,77.48388439941407Q144.91583850097658,77.49031439941406,144.94763850097655,77.49883439941406Q144.97933850097655,77.50735439941407,145.01043850097656,77.51794439941406Q145.04143850097657,77.52853439941406,145.07183850097655,77.54113439941406Q145.10213850097657,77.55373439941407,145.13153850097657,77.56830439941406Q145.16093850097656,77.58286439941406,145.18943850097656,77.59933439941406Q145.21783850097657,77.61579439941406,145.24503850097656,77.63408439941406Q145.27233850097656,77.65237439941406,145.29833850097657,77.67242439941407Q145.32433850097655,77.69246439941406,145.34903850097658,77.71416439941406Q145.37363850097657,77.73587439941406,145.39683850097657,77.75914439941407Q145.41993850097657,77.78242439941407,145.44153850097655,77.80716439941406Q145.46313850097656,77.83191439941406,145.48303850097656,77.85801439941406Q145.50293850097657,77.88412439941406,145.52113850097658,77.91148439941406Q145.53933850097656,77.93884439941407,145.55563850097656,77.96733439941406L149.08283850097655,84.12213439941407Z" fill="#F6EA9E" fill-opacity="1"/></g></g></g><g clip-path="url(#master_svg8_9_316)"><g><path d="M190.22351484375,145.4631203125C189.39241484375,144.8385203125,188.49161484375,144.3127203125,187.53931484375,143.8963203125L187.53931484375,134.3073203125C187.53931484375,132.2057003125,187.42121484375,131.5660703125,187.08301484375,130.9103203125C186.84931484375,130.4452303125,186.47941484375,130.0626703125,186.02271484375,129.8138203125C185.38921484374998,129.4644503125,184.77191484374998,129.3408203125,182.74261484375,129.3408203125L149.38861484375,129.3408203125C147.35934484375,129.3408203125,146.74197484375,129.4644503125,146.10850484375,129.8138203125C145.65179484375,130.0626703125,145.28187484375,130.4452303125,145.04824484375,130.9103203125C144.71003484375,131.5660703125,144.59192484375,132.2057003125,144.59192484375,134.3073203125L144.59192484375,159.3118203125C144.59192484375,161.4134203125,144.71003484375,162.0531203125,145.04824484375,162.7061203125C145.29787484375,163.1899203125,145.64413484375,163.5473203125,146.10850484375,163.8053203125C146.74197484375,164.1547203125,147.35934484375,164.2783203125,149.38861484375,164.2783203125L171.43401484375,164.2783203125C172.19791484375,165.2962203125,173.10151484375,166.2010203125,174.11821484375,166.9658203125L149.64897484375,166.9658203125C146.95671484375,166.9658203125,145.98234484375,166.6782203125,144.99724484375,166.1381203125C144.01894484375,165.6027203125,143.22400484375,164.7853203125,142.71566184375,163.7919203125C142.18687284375,162.78142031250002,141.90771484375,161.7789203125,141.90771484375,159.0135203125L141.90771484375,134.6029503125C141.90771484375,131.8375103125,142.18687284375,130.8350703125,142.71297784375,129.8245703125C143.24176484375,128.8140703125,144.01213484375,128.0239503125,144.99724484375,127.4810703125C145.98234484375,126.9408833125,146.95671484375,126.6533203125,149.64897484375,126.6533203125L182.48221484375,126.6533203125C185.17451484375,126.6533203125,186.14891484375,126.9408823125,187.13401484375,127.4810703125C188.11911484375,128.0212603125,188.88941484375,128.8140703125,189.41551484375,129.8245703125C189.94431484375,130.8350703125,190.22351484375,131.8401903125,190.22351484375,134.6029503125L190.22351484375,145.4631203125ZM151.97351484375,134.7131303125L164.05241484375,134.7131303125C165.16431484375,134.7131303125,166.06561484375,135.6155603125,166.06561484375,136.7287203125C166.06561484375,137.8419203125,165.16431484375,138.7444203125,164.05241484375,138.7444203125L151.97351484375,138.7444203125C150.86166484375,138.7444203125,149.96034484375,137.8419203125,149.96034484375,136.7287203125C149.96034484375,135.6155603125,150.86166484375,134.7131303125,151.97351484375,134.7131303125ZM151.97351484375,142.7756203125L164.05241484375,142.7756203125C165.16431484375,142.7756203125,166.06561484375,143.6780203125,166.06561484375,144.7912203125C166.06561484375,145.9044203125,165.16431484375,146.8069203125,164.05241484375,146.8069203125L151.97351484375,146.8069203125C150.86166484375,146.8069203125,149.96034484375,145.9044203125,149.96034484375,144.7912203125C149.96034484375,143.6780203125,150.86166484375,142.7756203125,151.97351484375,142.7756203125ZM151.97351484375,150.8381203125L158.68401484375,150.8381203125C159.79591484375,150.8381203125,160.69721484375,151.7405203125,160.69721484375,152.8537203125C160.69721484375,153.9669203125,159.79591484375,154.8694203125,158.68401484375,154.8694203125L151.97351484375,154.8694203125C150.86166484375,154.8694203125,149.96034484375,153.9669203125,149.96034484375,152.8537203125C149.96034484375,151.7405203125,150.86166484375,150.8381203125,151.97351484375,150.8381203125ZM182.17091484374998,166.9631203125C176.24111484374998,166.9631203125,171.43401484375,162.15022031249998,171.43401484375,156.2131203125C171.43401484375,150.2761203125,176.24111484374998,145.4631203125,182.17091484374998,145.4631203125C188.10071484374998,145.4631203125,192.90771484375,150.2761203125,192.90771484375,156.2131203125C192.90771484375,162.15022031249998,188.10071484374998,166.9631203125,182.17091484374998,166.9631203125ZM182.17091484374998,161.4269203125C183.02441484375,161.4376203125,183.83511484375,161.01842031249998,184.14381484375,160.3331203125L187.41581484375,153.0687203125C187.80231484375,152.2087203125,187.25481484375,151.2547203125,186.18641484375001,150.9402203125C185.12081484375,150.6258203125,183.94241484375,151.0719203125,183.55321484375,151.9346203125L182.17091484374998,154.9984203125L180.78851484375,151.9292203125C180.39931484375,151.0692203125,179.22091484375,150.6231203125,178.15531484375,150.9375203125C177.08961484374998,151.2520203125,176.53941484375,152.2034203125,176.92591484375,153.0660203125L180.20061484375,160.3304203125C180.50661484375001,161.0157203125,181.31731484375,161.4349203125,182.17091484374998,161.4215203125L182.17091484374998,161.4269203125Z" fill="#FFFFFF" fill-opacity="1"/></g></g></g></svg>