<svg xmlns="http://www.w3.org/2000/svg" xmlns:xlink="http://www.w3.org/1999/xlink" fill="none" version="1.1" width="22" height="22" viewBox="0 0 22 22"><defs><clipPath id="master_svg0_35_0558"><rect x="0" y="0" width="22" height="22" rx="0"/></clipPath></defs><g clip-path="url(#master_svg0_35_0558)"><g><path d="M8.2457,9.9751934375C9.75176,9.9751934375,10.96777,8.7806634375,10.96777,7.3068334375L10.96777,6.4173834375C10.96777,4.9457034375,9.74746,3.7490234375,8.2457,3.7490234375C6.73965,3.7490234375,5.52363,4.9435534375,5.52363,6.4173834375L5.52363,7.3068334375C5.51934,8.7806634375,6.73965,9.9751934375,8.2457,9.9751934375ZM15.05415,9.9794934375C16.24005,9.9794934375,17.19825,9.0083934375,17.19825,7.8095734375L17.19825,7.0855434375C17.19825,5.886723437500001,16.23785,4.9156234375,15.05415,4.9156234375C13.87035,4.9156234375,12.90995,5.886723437500001,12.90995,7.0855434375L12.90995,7.8095734375C12.90785,9.0083934375,13.87035,9.9794934375,15.05415,9.9794934375ZM18.52595,11.7841834375C17.507649999999998,11.3695334375,16.40335,11.143943437499999,15.24965,11.143943437499999C14.70825,11.143943437499999,14.17755,11.1976534375,13.66405,11.2943334375C13.74575,11.3222634375,13.82515,11.3480434375,13.90465,11.378123437500001C14.92735,11.8228534375,15.64065,12.8175734375,15.64065,13.9820234375L15.64065,15.8039234375C16.69765,15.7760234375,17.728949999999998,15.6406234375,18.72365,15.4000234375C19.18985,15.2517234375,19.53145,14.7963234375,19.53145,14.2527234375L19.53145,13.4277334375C19.52925,12.6908234375,19.11465,12.0634734375,18.52595,11.7841834375ZM12.71015,12.3835934375C11.32227,11.8335934375,9.81836,11.5306634375,8.2457,11.5306634375C6.6752,11.5306634375,5.17129,11.8335934375,3.7855499999999997,12.3814434375C2.975586,12.7531234375,2.40625,13.5931634375,2.40625,14.5771234375L2.40625,15.6728234375C2.40625,16.3990234375,2.868164,17.0070234375,3.50195,17.2047234375C5.027340000000001,17.563523437500002,6.61289,17.7611234375,8.243549999999999,17.7611234375C9.86992,17.7611234375,11.45547,17.5678234375,12.97875,17.2068234375C13.61465,17.0113234375,14.08085,16.4011234375,14.08085,15.6728234375L14.08085,14.5771234375C14.08085,13.5953134375,13.51585,12.7595734375,12.71015,12.3835934375Z" fill="#0F77FF" fill-opacity="1"/></g></g></svg>