<svg xmlns="http://www.w3.org/2000/svg" xmlns:xlink="http://www.w3.org/1999/xlink" width="20" height="20" viewBox="0 0 20 20">
  <defs>
    <style>
      .cls-1 {
        fill: #fff;
        stroke: #707070;
        opacity: 0;
      }

      .cls-2 {
        fill: url(#linear-gradient);
      }

      .cls-3 {
        stroke: none;
      }

      .cls-4 {
        fill: none;
      }
    </style>
    <linearGradient id="linear-gradient" x1="0.5" x2="0.5" y2="1" gradientUnits="objectBoundingBox">
      <stop offset="0" stop-color="#006fff"/>
      <stop offset="1" stop-color="#0f77ff" stop-opacity="0.702"/>
    </linearGradient>
  </defs>
  <g id="icon_laing" transform="translate(-338 -30)">
    <g id="矩形_35" data-name="矩形 35" class="cls-1" transform="translate(338 30)">
      <rect class="cls-3" width="20" height="20"/>
      <rect class="cls-4" x="0.5" y="0.5" width="19" height="19"/>
    </g>
    <path id="路径_41" data-name="路径 41" class="cls-2" d="M141.351,15.729v.2q0,.089.009.2t.009.215a2.226,2.226,0,0,1-.188.742,1.062,1.062,0,0,1-.652.581q-.2.071-.509.206a2.5,2.5,0,0,1-.938.134,2.654,2.654,0,0,1-.885-.125,3.7,3.7,0,0,0-.545-.161.727.727,0,0,1-.4-.223,1.207,1.207,0,0,1-.232-.384,1.608,1.608,0,0,1-.1-.438q-.018-.223-.018-.4v-.554Zm3.879-11.69a6.494,6.494,0,0,1,.536,2.056,6.154,6.154,0,0,1-.107,1.779,5.753,5.753,0,0,1-.518,1.457,8.162,8.162,0,0,1-.706,1.126,7.124,7.124,0,0,1-.688.8q-.322.313-.447.42a1.7,1.7,0,0,1-.331.241q-.152.08-.268.134a1.645,1.645,0,0,0-.223.125.824.824,0,0,0-.215.232,3.3,3.3,0,0,0-.357.661q-.125.322-.214.626a1.894,1.894,0,0,1-.2.411,1.868,1.868,0,0,1-.232.286,1.633,1.633,0,0,1-.286.232h-3.932a1.211,1.211,0,0,1-.268-.232,1.89,1.89,0,0,1-.25-.322,1.972,1.972,0,0,1-.214-.5,2.648,2.648,0,0,0-.438-.831,3.791,3.791,0,0,0-.67-.617,6.859,6.859,0,0,1-.652-.572,6.952,6.952,0,0,1-.724-.84,8.861,8.861,0,0,1-.679-1.081,6.288,6.288,0,0,1-.518-1.314,6.892,6.892,0,0,1-.232-1.528,6.59,6.59,0,0,1,.161-1.707,5.881,5.881,0,0,1,1.055-2.4,6.581,6.581,0,0,1,1.68-1.564,6.771,6.771,0,0,1,1.922-.849,7.172,7.172,0,0,1,1.8-.259,7.088,7.088,0,0,1,1.752.232,6.909,6.909,0,0,1,1.761.724,6.708,6.708,0,0,1,1.555,1.251,6.114,6.114,0,0,1,1.153,1.832Zm-1.805,3.646a3.97,3.97,0,0,0-2-4.773,3.958,3.958,0,0,0-1.081-.447,4.972,4.972,0,0,0-1.26-.161,5.182,5.182,0,0,0-1.278.161,3.561,3.561,0,0,0-1.135.5,4.488,4.488,0,0,0-1.645,1.823,4.732,4.732,0,0,0-.393,2.073,3.258,3.258,0,0,0,.206,1.09,4.644,4.644,0,0,0,.447.876,5.108,5.108,0,0,0,.536.688q.277.295.492.527.447.465.786.813a2.461,2.461,0,0,1,.536.885.939.939,0,0,0,.617.635,2.931,2.931,0,0,0,.778.116,2.044,2.044,0,0,0,.894-.206,1.193,1.193,0,0,0,.608-.635,2.363,2.363,0,0,1,.366-.608q.277-.357.831-1a7.861,7.861,0,0,1,.545-.59q.259-.25.483-.5a3.252,3.252,0,0,0,.393-.545,2.826,2.826,0,0,0,.277-.724Z" transform="translate(208.707 30.814)"/>
  </g>
</svg>
