<svg xmlns="http://www.w3.org/2000/svg" width="20" height="20" viewBox="0 0 20 20">
  <defs>
    <style>
      .cls-1 {
        fill: #fff;
        stroke: #707070;
        opacity: 0;
      }

      .cls-2 {
        fill: #4d4d4d;
      }

      .cls-3 {
        stroke: none;
      }

      .cls-4 {
        fill: none;
      }
    </style>
  </defs>
  <g id="icon_jinr" transform="translate(-333 -357)">
    <g id="矩形_75" data-name="矩形 75" class="cls-1" transform="translate(333 357)">
      <rect class="cls-3" width="20" height="20"/>
      <rect class="cls-4" x="0.5" y="0.5" width="19" height="19"/>
    </g>
    <path id="路径_3" data-name="路径 3" class="cls-2" d="M255.534,66.418a.633.633,0,0,0,.912,0l3.242-3.337a.678.678,0,0,0,0-.938l-3.242-3.337a.632.632,0,0,0-.912,0,.677.677,0,0,0,0,.938l2.786,2.867-2.786,2.867a.677.677,0,0,0,0,.939h0Z" transform="translate(86.134 304.388)"/>
  </g>
</svg>
