<svg xmlns="http://www.w3.org/2000/svg" width="16" height="16" viewBox="0 0 16 16">
  <defs>
    <style>
      .cls-1 {
        fill: #fff;
      }
    </style>
  </defs>
  <g id="icon_gengd" transform="translate(-299 -151)">
    <path id="减去_1" data-name="减去 1" class="cls-1" d="M8,16a8,8,0,1,1,8-8A8.009,8.009,0,0,1,8,16ZM6.525,4a.573.573,0,0,0-.4.178.486.486,0,0,0,.049.7l3.26,2.758a.433.433,0,0,1,.15.3.438.438,0,0,1-.15.3L6.228,11.147a.606.606,0,0,0-.176.341.42.42,0,0,0,.125.361.454.454,0,0,0,.351.15.916.916,0,0,0,.351-.1l3.209-2.908a1.452,1.452,0,0,0,.451-1.053,1.408,1.408,0,0,0-.5-1.053L6.83,4.127A.423.423,0,0,0,6.525,4Z" transform="translate(299 151)"/>
  </g>
</svg>
