<svg xmlns="http://www.w3.org/2000/svg" xmlns:xlink="http://www.w3.org/1999/xlink" width="16" height="16" viewBox="0 0 16 16">
  <defs>
    <style>
      .cls-1 {
        fill: url(#linear-gradient);
      }
    </style>
    <linearGradient id="linear-gradient" x1="0.5" x2="0.5" y2="1" gradientUnits="objectBoundingBox">
      <stop offset="0" stop-color="#006fff"/>
      <stop offset="1" stop-color="#0f77ff" stop-opacity="0.702"/>
    </linearGradient>
  </defs>
  <g id="icon_gongzxx" transform="translate(-17 -295)">
    <path id="路径_45" data-name="路径 45" class="cls-1" d="M8.81,6.221A2.453,2.453,0,0,0,9.937,4.269C9.9,4.014,8.782,3.8,7.987,3.8s-1.918.179-1.925.532a2.31,2.31,0,0,0,1.1,1.905,33.389,33.389,0,0,0-.922,5.011c0,.628,1.459,1.83,1.827,1.736a2.867,2.867,0,0,0,1.659-1.736A21.486,21.486,0,0,0,8.81,6.221ZM8,16a8,8,0,1,1,8-8A8,8,0,0,1,8,16Z" transform="translate(17 295)"/>
  </g>
</svg>
