<svg xmlns="http://www.w3.org/2000/svg" xmlns:xlink="http://www.w3.org/1999/xlink" fill="none" version="1.1" width="18" height="18" viewBox="0 0 18 18"><defs><clipPath id="master_svg0_35_0544"><rect x="0" y="0" width="18" height="18" rx="0"/></clipPath><linearGradient x1="0.5" y1="0" x2="0.5" y2="1" id="master_svg1_35_1182"><stop offset="0%" stop-color="#FF8000" stop-opacity="1"/><stop offset="80.71428537368774%" stop-color="#F6A451" stop-opacity="1"/></linearGradient></defs><g clip-path="url(#master_svg0_35_0544)"><g><path d="M11.2879584375,15.7299L11.2879584375,15.9265Q11.2879584375,16.0159,11.2968984375,16.1231Q11.3058384375,16.2304,11.3058384375,16.3376Q11.2879584375,16.6773,11.1181484375,17.0794Q10.9483384375,17.4816,10.4657184375,17.6604Q10.2690984375,17.7319,9.9562884375,17.8659Q9.643468437500001,18,9.0178484375,18Q8.4816084375,18,8.133048437500001,17.8749Q7.7844884375,17.7498,7.5878584375,17.714Q7.3376184375,17.6604,7.1856784375,17.4906Q7.0337384375,17.3208,6.9533084375,17.1063Q6.8728684375,16.8918,6.8549884375,16.6683Q6.8371184375,16.4449,6.8371184375,16.2661L6.8371184375,15.712L11.2879584375,15.7299ZM15.1668484375,4.03972Q15.6315484375,5.13009,15.7030484375,6.09533Q15.7745484375,7.06058,15.5958484375,7.87388Q15.4170484375,8.68719,15.0774484375,9.33069Q14.7378484375,9.97418,14.3713484375,10.4568Q14.0049484375,10.9394,13.6831484375,11.2522Q13.3614484375,11.565,13.2363484375,11.6723Q13.0575484375,11.8332,12.9056484375,11.9136Q12.7537484375,11.994,12.6375484375,12.0477Q12.5213484375,12.1013,12.4140484375,12.1728Q12.3068284375,12.2443,12.1995784375,12.4052Q11.9672084375,12.7448,11.8420884375,13.0665Q11.7169584375,13.3883,11.6275884375,13.6922Q11.5382084375,13.9424,11.4309584375,14.1033Q11.3237084375,14.2642,11.1985884375,14.3893Q11.0555884375,14.5323,10.9125884375,14.6217L6.9801184375,14.6217Q6.8371184375,14.5323,6.7119884375,14.3893Q6.5868684375,14.2642,6.4617484375,14.0675Q6.3366184375,13.8709,6.2472484375,13.567Q6.068498437500001,13.0487,5.8093084375,12.7359Q5.5501284375,12.423,5.139008437499999,12.1192Q4.8530084375,11.9047,4.4865684375,11.5472Q4.1201384375,11.1897,3.7626384374999997,10.7071Q3.4051384375,10.2244,3.0833934375,9.62562Q2.7616454375,9.02681,2.5650214375,8.31182Q2.3683981375,7.59682,2.3326484675,6.78352Q2.2968987375,5.97021,2.4935224375,5.07647Q2.7973954375,3.64647,3.5481384375,2.67229Q4.2988884375000005,1.69811,5.2283784375,1.10824Q6.1578684374999995,0.518371,7.1499284375,0.259186Q8.1419784375,2.14577e-8,8.9463484375,0Q9.7864684375,0,10.6980884375,0.232373Q11.6097084375,0.464747,12.4587484375,0.956306Q13.3078484375,1.44787,14.0138484375,2.20755Q14.7199484375,2.96723,15.1668484375,4.03972ZM13.3614484375,7.6862Q14.1300484375,4.55809,11.3594584375,2.9136Q10.8947084375,2.62761,10.2780284375,2.46673Q9.6613484375,2.30586,9.0178484375,2.30586Q8.3743584375,2.30586,7.7397984375,2.46673Q7.1052384375,2.62761,6.6047384375,2.96723Q5.3892484375,3.80735,4.9602584375,4.79047Q4.5312584375,5.77359,4.5670084375,6.86395Q4.5848784375000005,7.4717,4.7725684375,7.95432Q4.9602584375,8.43694,5.2194384375,8.83019Q5.478628437499999,9.22344,5.7556884375,9.51837Q6.0327484375000004,9.81331,6.2472484375,10.0457Q6.6941184375,10.5104,7.0337384375,10.859Q7.3733684375,11.2075,7.5699884375,11.7438Q7.7666084375,12.2622,8.1866684375,12.3784Q8.6067284375,12.4945,8.964228437500001,12.4945Q9.4289784375,12.4945,9.8579684375,12.289Q10.2869684375,12.0834,10.4657184375,11.6544Q10.5550884375,11.4042,10.8321484375,11.0467Q11.1092184375,10.6892,11.6633384375,10.0457Q11.9493284375,9.70606,12.2085184375,9.45581Q12.4677484375,9.20556,12.6911484375,8.95531Q12.9145484375,8.70507,13.0843484375,8.41013Q13.2542484375,8.1152,13.3614484375,7.6862Z" fill="url(#master_svg1_35_1182)" fill-opacity="1"/></g></g></svg>